<?xml version="1.0" encoding="UTF-8"?>
<svg width="840px" height="610px" viewBox="0 0 840 610" version="1.1" xmlns="http://www.w3.org/2000/svg" xmlns:xlink="http://www.w3.org/1999/xlink">
    <!-- Generator: Sketch 53.2 (72643) - https://sketchapp.com -->
    <title>agat-vert</title>
    <desc>Created with Sketch.</desc>
    <g id="Page-1" stroke="none" stroke-width="1" fill="none" fill-rule="evenodd">
        <g id="Group" fill="#000000" fill-rule="nonzero">
            <path d="M211.569323,309.838434 L284.469847,309.838434 L275.939313,516.33258 L231.473903,516.33258 L234.16813,467.064922 L213.232777,467.064922 L200.785305,516.33258 L156,516.33258 L211.569323,309.838434 Z M218.486164,442.164992 L236.258111,442.164992 L241.511498,370.864196 L245.421326,334.213259 L242.847948,334.213259 L235.490363,370.864196 L218.486164,442.164992 Z M375.241842,380.039348 L381.547328,339.074032 C381.895658,336.782018 381.398044,335.121549 380.018941,334.106819 C378.886231,333.124341 377.452097,332.556222 375.952719,332.496022 C374.352991,332.439854 372.833454,333.195588 371.914933,334.504196 C371.016252,335.684325 370.411934,337.061059 370.151956,338.520542 L347.346994,486.862814 C347.000562,488.501609 347.317433,490.210662 348.228483,491.617146 C349.01474,492.801743 350.360084,493.494695 351.782872,493.447919 C355.806441,493.447919 358.13812,491.319114 358.77791,487.146655 L366.000429,440.178107 L358.827672,440.178107 L362.573998,415.831666 L417.382681,415.831666 L401.921088,516.36806 L377.239408,516.36806 L374.850859,505.766608 C370.585592,510.187427 367.031202,513.103891 364.301431,514.650823 C361.532169,516.207413 358.513705,517.273383 355.379914,517.801456 C352.487581,518.337773 349.56893,518.721491 346.636116,518.951011 C344.027195,519.121315 340.949094,519.241947 337.522662,519.241947 C327.193607,519.241947 319.132252,518.269793 313.281727,516.40354 C307.431202,514.537287 303.258349,511.010566 300.720515,505.979488 C298.182681,500.948411 297.350954,495.037427 298.374618,488.33169 L321.506584,337.640636 C323.117907,327.14799 328.665124,319.415694 338.148235,314.443751 C347.631345,309.471807 361.730423,306.990566 380.445468,307.000027 C394.392891,307.000027 404.672185,308.078622 411.212261,310.320964 C417.752338,312.563306 422.700048,316.104219 425.884781,321.192064 C429.074578,325.935182 430.344695,331.708915 429.43917,337.349699 L422.884876,380.032252 L375.241842,380.039348 Z M476.890267,309.838434 L549.769466,309.838434 L541.238931,516.33258 L496.794847,516.33258 L499.496183,467.064922 L478.539504,467.064922 L466.063597,516.36806 L421.278292,516.36806 L476.890267,309.838434 Z M483.835544,442.18628 L501.60749,442.18628 L506.825334,370.864196 L510.735162,334.213259 L508.147567,334.213259 L500.79709,370.864196 L483.835544,442.18628 Z M577.699857,309.859723 L684.992653,309.859723 L680.514122,339.074032 L650.962929,339.074032 L623.700763,516.36806 L575.218893,516.36806 L602.47395,339.074032 L573.214218,339.074032 L577.699857,309.859723 Z M345.691678,575.009063 L339.770065,608.303583 L330.621067,608.303583 L331.843777,601.342389 C328.339149,606.671499 324.514626,609.772459 317.164149,609.772459 C309.387145,609.772459 303.344684,605.223911 303.010571,594.814051 C302.939483,592.578805 303.110094,590.166159 307.311382,567.139578 C309.9985,552.599836 318.123834,545.14192 331.5381,545.099344 C343.331563,545.099344 347.724789,551.485761 347.973596,559.199133 C348.012962,561.607032 347.747844,564.01027 347.184521,566.35192 L335.497689,566.35192 C335.842953,564.5345 336.011975,562.688099 336.002413,560.838314 C335.853128,556.360726 333.869779,554.558337 329.903081,554.558337 C323.924598,554.558337 320.867823,557.92185 319.353653,566.359016 C315.394063,588.981124 315.131039,591.386674 315.195018,593.366463 C315.351411,598.099508 317.213911,600.334754 321.592918,600.334754 C326.718348,600.334754 330.876983,596.786744 332.341392,584.233887 L324.55017,584.233887 L326.213624,575.009063 L345.691678,575.009063 Z M359.76706,608.296487 L348.073119,608.296487 L359.205466,546.177939 L383.553033,546.177939 C391.585953,546.177939 396.19955,551.336744 396.427031,558.390187 C396.768252,568.977447 390.100218,576.548899 384.214149,576.981756 L384.214149,577.066908 C389.282708,577.925527 390.775552,581.629648 390.882184,584.872529 C390.974598,587.710937 388.2235,600.185737 388.337241,603.542154 C388.394111,605.259391 388.941487,606.47281 390.221067,606.47281 L389.851411,608.275199 L378.143252,608.275199 C377.091153,607.246276 376.721497,605.614192 376.629082,603.719555 C376.479798,599.163911 378.85413,590.726744 378.761716,587.718033 C378.655084,584.453864 377.119588,581.956065 373.024932,581.963161 L364.494397,581.963161 L359.76706,608.296487 Z M466.526697,546.121171 L458.70704,589.832646 C458.434479,591.191953 458.308174,592.576437 458.330275,593.962529 C458.465342,598.014356 460.462909,599.901897 464.728176,599.894801 C470.536048,599.894801 473.080991,596.79384 474.31081,589.818454 L482.130466,546.106979 L493.838624,546.106979 L485.755943,591.521499 C483.729941,602.704824 476.770447,609.332506 463.093157,609.339602 C451.818634,609.339602 446.54392,604.876206 446.280895,596.786744 C446.226598,595.028348 446.369664,593.269409 446.707422,591.542787 L454.790103,546.128267 L466.526697,546.121171 Z M502.916535,608.211335 L491.215485,608.211335 L502.340724,546.092787 L524.470352,546.092787 C532.844493,546.092787 537.557613,551.769602 537.813529,559.504262 C538.211621,571.638454 529.176363,582.921124 517.731229,582.921124 L507.473262,582.921124 L502.916535,608.211335 Z M443.615103,558.86562 C443.714626,561.966581 443.508472,563.513513 439.044159,588.803723 C436.200647,604.642037 427.336,609.722787 415.457231,609.729883 C405.718205,609.729883 398.851124,606.125105 398.509903,595.800398 C398.41038,592.699438 398.708949,591.415058 403.102174,566.288056 C405.831945,550.627143 415.307947,545 427.016105,545 C436.840437,545 443.280991,548.604777 443.615103,558.837236 L443.615103,558.86562 Z M366.05122,573.10733 L373.913529,573.10733 C378.441821,573.10733 384.406086,570.00637 384.107518,560.887986 C383.965342,556.587798 381.192918,555.381475 376.835237,555.388571 L369.228844,555.388571 L366.05122,573.10733 Z M509.136716,573.703396 L515.029894,573.703396 C521.612623,573.703396 525.899216,568.970351 525.650409,561.491147 C525.522451,557.524473 523.055705,555.296323 518.271497,555.296323 L512.378319,555.296323 L509.136716,573.703396 Z M415.357708,564.875948 C410.594827,591.635035 410.438434,592.16014 410.502413,593.969625 C410.637479,598.014356 412.755895,600.249602 417.113577,600.249602 C422.153701,600.249602 425.644111,596.800937 426.781516,590.265503 C431.551506,563.591569 431.615485,563.073559 431.558615,561.171826 C431.423548,556.949695 429.290915,554.458993 425.35976,554.466089 C419.807804,554.466089 416.516439,558.255363 415.357708,564.875948 Z M536.321994,54.305832 L532.831584,54.277448 C531.409828,52.354426 525.011927,50.85007 522.879294,50.85007 C519.065627,51.094345 515.519412,52.889921 513.069179,55.817284 C510.339408,61.763747 511.96021,65.82267 507.694943,68.859766 L490.747615,69.129415 C498.899014,61.484637 507.048044,53.846956 515.194704,46.21637 L538.454628,46.07445 C537.74375,48.905761 537.032872,51.467424 536.321994,54.305832 Z M494.060305,102.196862 L517.377099,102.196862 C517.967221,102.216163 518.430938,102.707581 518.414981,103.296745 L518.414981,107.029251 C518.431004,107.619664 517.968338,108.113132 517.377099,108.13623 L494.060305,108.13623 C493.775562,108.126974 493.506185,108.005107 493.311511,107.797473 C493.116838,107.589839 493.012839,107.313473 493.022424,107.029251 L493.022424,103.296745 C493.006466,102.707581 493.470183,102.216163 494.060305,102.196862 Z M377.654055,0 L549.750477,0 L539.869275,40.92274 L512.500477,41.54719 L483.432681,67.660539 C480.944609,64.885996 478.49208,63.126183 475.968464,60.35164 C469.41417,60.195527 464.068368,59.961359 457.485639,60.35164 C454.272471,62.79267 455.068655,65.581405 457.570945,68.242412 C462.774571,68.05082 466.791031,68.306277 472.015983,68.114684 C473.181823,67.710211 474.703101,66.858689 475.868941,66.468408 L478.051336,71.251124 L455.161069,89.175668 C451.151718,92.319204 458.203626,128.203771 464.302958,146.596651 L469.52791,146.596651 L470.11083,151.961241 L503.045802,151.961241 L504.716365,144.836839 L511.967319,144.836839 L495.681107,206.572202 L417.740458,206.572202 L419.460782,189.932038 L361.879676,189.995902 L304,276.404122 L377.654055,0 Z M423.214218,152.663747 L430.145277,84.605832 L385.537691,152.919204 L423.214218,152.663747 Z" id="Combined-Shape"></path>
        </g>
    </g>
</svg>