<?xml version="1.0" encoding="UTF-8"?>
<svg width="745px" height="411px" viewBox="0 0 745 411" version="1.1" xmlns="http://www.w3.org/2000/svg" xmlns:xlink="http://www.w3.org/1999/xlink">
    <!-- Generator: Sketch 53.2 (72643) - https://sketchapp.com -->
    <title>agat</title>
    <desc>Created with Sketch.</desc>
    <g id="Page-1" stroke="none" stroke-width="1" fill="none" fill-rule="evenodd">
        <g id="agat-logo-copy" fill="#000000">
            <path d="M489.937023,367.768267 L484.01541,401.062787 L474.866412,401.062787 L476.089122,394.101593 C472.584494,399.430703 468.759971,402.531663 461.409494,402.531663 C453.63249,402.531663 447.590029,397.983115 447.255916,387.573255 C447.184828,385.338009 447.355439,382.925363 451.556727,359.898782 C454.243845,345.35904 462.369179,337.901124 475.783445,337.858548 C487.576908,337.858548 491.970134,344.244965 492.218941,351.958337 C492.258307,354.366236 491.993189,356.769474 491.429866,359.111124 L479.743034,359.111124 C480.088298,357.293704 480.25732,355.447303 480.247758,353.597518 C480.098473,349.11993 478.115124,347.317541 474.148426,347.317541 C468.169943,347.317541 465.113168,350.681054 463.598998,359.11822 C459.639408,381.740328 459.376384,384.145878 459.440363,386.125667 C459.596756,390.858712 461.459256,393.093958 465.838263,393.093958 C470.963693,393.093958 475.122328,389.545948 476.586737,376.993091 L468.795515,376.993091 L470.458969,367.768267 L489.937023,367.768267 Z M504.012405,401.055691 L492.318464,401.055691 L503.450811,338.937143 L527.798378,338.937143 C535.831298,338.937143 540.444895,344.095948 540.672376,351.149391 C541.013597,361.736651 534.345563,369.308103 528.459494,369.74096 L528.459494,369.826112 C533.528053,370.684731 535.020897,374.388852 535.127529,377.631733 C535.219943,380.470141 532.468845,392.944941 532.582586,396.301358 C532.639456,398.018595 533.186832,399.232014 534.466412,399.232014 L534.096756,401.034403 L522.388597,401.034403 C521.336498,400.00548 520.966842,398.373396 520.874427,396.478759 C520.725143,391.923115 523.099475,383.485948 523.007061,380.477237 C522.900429,377.213068 521.364933,374.715269 517.270277,374.722365 L508.739742,374.722365 L504.012405,401.055691 Z M510.296565,365.866534 L518.158874,365.866534 C522.687166,365.866534 528.651431,362.765574 528.352863,353.64719 C528.210687,349.347002 525.438263,348.140679 521.080582,348.147775 L513.474189,348.147775 L510.296565,365.866534 Z M587.860448,351.624824 C587.959971,354.725785 587.753817,356.272717 583.289504,381.562927 C580.445992,397.401241 571.581345,402.481991 559.702576,402.489087 C549.96355,402.489087 543.096469,398.884309 542.755248,388.559602 C542.655725,385.458642 542.954294,384.174262 547.347519,359.04726 C550.07729,343.386347 559.553292,337.759204 571.26145,337.759204 C581.085782,337.759204 587.526336,341.363981 587.860448,351.59644 L587.860448,351.624824 Z M559.603053,357.635152 C554.840172,384.394239 554.683779,384.919344 554.747758,386.728829 C554.882824,390.77356 557.00124,393.008806 561.358922,393.008806 C566.399046,393.008806 569.889456,389.560141 571.026861,383.024707 C575.796851,356.350773 575.86083,355.832763 575.80396,353.93103 C575.668893,349.708899 573.53626,347.218197 569.605105,347.225293 C564.053149,347.225293 560.761784,351.014567 559.603053,357.635152 Z M610.772042,338.880375 L602.952385,382.59185 C602.679824,383.951157 602.553519,385.335641 602.57562,386.721733 C602.710687,390.77356 604.708254,392.661101 608.973521,392.654005 C614.781393,392.654005 617.326336,389.553044 618.556155,382.577658 L626.375811,338.866183 L638.083969,338.866183 L630.001288,384.280703 C627.975286,395.464028 621.015792,402.09171 607.338502,402.098806 C596.063979,402.098806 590.789265,397.63541 590.52624,389.545948 C590.471943,387.787552 590.615009,386.028613 590.952767,384.301991 L599.035448,338.887471 L610.772042,338.880375 Z M647.16188,400.970539 L635.46083,400.970539 L646.586069,338.851991 L668.715697,338.851991 C677.089838,338.851991 681.802958,344.528806 682.058874,352.263466 C682.456966,364.397658 673.421708,375.680328 661.976574,375.680328 L651.718607,375.680328 L647.16188,400.970539 Z M653.382061,366.4626 L659.275239,366.4626 C665.857968,366.4626 670.144561,361.729555 669.895754,354.250351 C669.767796,350.283677 667.30105,348.055527 662.516842,348.055527 L656.623664,348.055527 L653.382061,366.4626 Z M271.555344,102.838407 L344.455868,102.838407 L335.925334,309.332553 L291.459924,309.332553 L294.154151,260.064895 L273.218798,260.064895 L260.771326,309.332553 L215.986021,309.332553 L271.555344,102.838407 Z M278.472185,235.164965 L296.244132,235.164965 L301.497519,163.864169 L305.407347,127.213232 L302.833969,127.213232 L295.476384,163.864169 L278.472185,235.164965 Z M435.227863,173.039321 L441.533349,132.074005 C441.881679,129.781991 441.384065,128.121522 440.004962,127.106792 C438.872252,126.124314 437.438118,125.556195 435.93874,125.495995 C434.339012,125.439827 432.819475,126.195561 431.900954,127.504169 C431.002273,128.684298 430.397955,130.061032 430.137977,131.520515 L407.333015,279.862787 C406.986583,281.501582 407.303454,283.210635 408.214504,284.617119 C409.000761,285.801716 410.346105,286.494668 411.768893,286.447892 C415.792462,286.447892 418.124141,284.319087 418.763931,280.146628 L425.98645,233.17808 L418.813693,233.17808 L422.560019,208.831639 L477.368702,208.831639 L461.907109,309.368033 L437.225429,309.368033 L434.83688,298.766581 C430.571613,303.1874 427.017223,306.103864 424.287452,307.650796 C421.51819,309.207386 418.499726,310.273356 415.365935,310.801429 C412.473602,311.337746 409.554951,311.721464 406.622137,311.950984 C404.013216,312.121288 400.935115,312.24192 397.508683,312.24192 C387.179628,312.24192 379.118273,311.269766 373.267748,309.403513 C367.417223,307.53726 363.24437,304.010539 360.706536,298.979461 C358.168702,293.948384 357.336975,288.0374 358.360639,281.331663 L381.492605,130.640609 C383.103928,120.147963 388.651145,112.415667 398.134256,107.443724 C407.617366,102.47178 421.716444,99.9905386 440.431489,100 C454.378912,100 464.658206,101.078595 471.198282,103.320937 C477.738359,105.563279 482.686069,109.104192 485.870802,114.192037 C489.060599,118.935155 490.330716,124.708888 489.425191,130.349672 L482.870897,173.032225 L435.227863,173.039321 Z M536.876288,102.838407 L609.755487,102.838407 L601.224952,309.332553 L556.780868,309.332553 L559.482204,260.064895 L538.525525,260.064895 L526.049618,309.368033 L481.264313,309.368033 L536.876288,102.838407 Z M543.821565,235.186253 L561.593511,235.186253 L566.811355,163.864169 L570.721183,127.213232 L568.133588,127.213232 L560.783111,163.864169 L543.821565,235.186253 Z M637.685878,102.859696 L744.978674,102.859696 L740.500143,132.074005 L710.94895,132.074005 L683.686784,309.368033 L635.204914,309.368033 L662.459971,132.074005 L633.200239,132.074005 L637.685878,102.859696 Z" id="Combined-Shape" fill-rule="nonzero"></path>
            <path d="M232.321994,156.668806 L228.831584,156.640422 C227.409828,154.7174 221.011927,153.213044 218.879294,153.213044 C215.065627,153.457319 211.519412,155.252895 209.069179,158.180258 C206.339408,164.126721 207.96021,168.185644 203.694943,171.22274 L186.747615,171.492389 C194.899014,163.847611 203.048044,156.20993 211.194704,148.579344 L234.454628,148.437424 C233.74375,151.268735 233.032872,153.830398 232.321994,156.668806 Z M190.060305,204.559836 L213.377099,204.559836 C213.967221,204.579137 214.430938,205.070555 214.414981,205.659719 L214.414981,209.392225 C214.431004,209.982638 213.968338,210.476106 213.377099,210.499204 L190.060305,210.499204 C189.775562,210.489948 189.506185,210.368081 189.311511,210.160447 C189.116838,209.952813 189.012839,209.676447 189.022424,209.392225 L189.022424,205.659719 C189.006466,205.070555 189.470183,204.579137 190.060305,204.559836 Z M73.6540553,102.362974 L245.750477,102.362974 L235.869275,143.285714 L208.500477,143.910164 L179.432681,170.023513 C176.944609,167.24897 174.49208,165.489157 171.968464,162.714614 C165.41417,162.558501 160.068368,162.324333 153.485639,162.714614 C150.272471,165.155644 151.068655,167.944379 153.570945,170.605386 C158.774571,170.413794 162.791031,170.669251 168.015983,170.477658 C169.181823,170.073185 170.703101,169.221663 171.868941,168.831382 L174.051336,173.614098 L151.161069,191.538642 C147.151718,194.682178 154.203626,230.566745 160.302958,248.959625 L165.52791,248.959625 L166.11083,254.324215 L199.045802,254.324215 L200.716365,247.199813 L207.967319,247.199813 L191.681107,308.935176 L113.740458,308.935176 L115.460782,292.295012 L57.8796756,292.358876 L0,378.767096 L73.6540553,102.362974 Z M119.214218,255.026721 L126.145277,186.968806 L81.5376908,255.282178 L119.214218,255.026721 Z" id="Combined-Shape"></path>
        </g>
    </g>
</svg>