<?xml version="1.0" encoding="UTF-8"?>
<svg width="1282px" height="411px" viewBox="0 0 1282 411" version="1.1" xmlns="http://www.w3.org/2000/svg" xmlns:xlink="http://www.w3.org/1999/xlink">
    <!-- Generator: Sketch 53.2 (72643) - https://sketchapp.com -->
    <title>megafon</title>
    <desc>Created with Sketch.</desc>
    <g id="Page-1" stroke="none" stroke-width="1" fill="none" fill-rule="evenodd">
        <g id="Combined-Shape-2" fill="#000000" fill-rule="nonzero">
            <path d="M127.932079,91.6705882 C184.195402,98.3764706 227.732497,146.658824 227.732497,205 C227.732497,268.035294 176.827586,319 113.866249,319 C109.84744,319 106.498433,318.329412 103.149425,318.329412 L103.149425,219.752941 C103.149425,219.082353 103.819227,218.411765 104.489028,218.411765 L118.554859,218.411765 C123.913271,218.411765 127.932079,214.388235 127.932079,209.023529 L127.932079,91.6705882 Z M125.252874,267.364706 C133.290491,267.364706 139.988506,260.658824 139.318704,253.282353 C139.318704,245.905882 133.290491,239.2 125.252874,239.2 C117.885057,239.2 111.187043,245.235294 111.187043,253.282353 C111.187043,260.658824 117.215256,267.364706 125.252874,267.364706 Z M158.742947,267.364706 C166.780564,267.364706 172.808777,260.658824 172.808777,253.282353 C172.808777,245.905882 166.780564,239.2 158.742947,239.2 C151.375131,239.2 144.677116,245.235294 144.677116,253.282353 C144.677116,260.658824 150.705329,267.364706 158.742947,267.364706 Z M192.23302,267.364706 C200.270637,267.364706 206.298851,260.658824 206.298851,253.282353 C206.298851,245.905882 200.270637,239.2 192.23302,239.2 C184.865204,239.2 178.167189,245.235294 178.167189,253.282353 C178.167189,260.658824 184.195402,267.364706 192.23302,267.364706 Z M113.866249,91 L113.866249,202.988235 C113.866249,203.658824 113.196447,204.329412 112.526646,204.329412 L103.149425,204.329412 L98.460815,204.329412 C93.7722048,205 89.753396,209.023529 89.753396,213.717647 L89.753396,316.317647 C38.1786834,305.588235 0,259.988235 0,205 C0,141.964706 50.9049112,91 113.866249,91 Z M91.7628004,184.882353 C99.800418,184.882353 105.828631,178.176471 105.828631,170.8 C105.828631,163.423529 99.800418,156.717647 91.7628004,156.717647 C84.3949843,156.717647 77.6969697,162.752941 77.6969697,170.8 C77.6969697,178.176471 83.7251829,184.882353 91.7628004,184.882353 Z M1253.86834,153.364706 L1282,153.364706 L1282,267.364706 L1253.86834,267.364706 L1253.86834,221.094118 L1196.26541,221.094118 L1196.26541,267.364706 L1167.46395,267.364706 L1167.46395,153.364706 L1196.26541,153.364706 L1196.26541,196.282353 L1253.86834,196.282353 L1253.86834,153.364706 Z M779.648903,166.105882 L825.865204,267.364706 L795.724138,267.364706 L785.677116,243.223529 L726.734587,243.223529 L716.687565,267.364706 L686.546499,267.364706 L732.7628,166.105882 C737.451411,156.047059 746.828631,150.682353 756.205852,150.682353 C765.583072,150.682353 774.960293,156.047059 779.648903,166.105882 Z M736.111808,220.423529 L774.960293,220.423529 L757.545455,178.847059 C757.545455,177.505882 756.205852,177.505882 755.53605,177.505882 C754.866249,177.505882 754.196447,177.505882 753.526646,178.847059 L736.111808,220.423529 Z M440.729363,132.576471 C453.45559,132.576471 466.181818,141.964706 466.181818,161.411765 L466.181818,267.364706 L438.050157,267.364706 L438.050157,164.094118 L400.541275,249.258824 C395.852665,261.329412 387.815047,268.705882 375.758621,268.705882 C364.371996,268.705882 355.664577,261.329412 350.975967,249.258824 L313.467085,164.094118 L313.467085,266.694118 L285.335423,266.694118 L285.335423,160.741176 C285.335423,141.294118 298.061651,132.576471 310.787879,132.576471 C324.183908,132.576471 332.891327,139.952941 338.91954,154.035294 L375.758621,239.870588 L412.597701,154.035294 C418.625914,139.952941 427.333333,132.576471 440.729363,132.576471 Z M516.416928,243.223529 L516.416928,241.882353 L586.746082,241.882353 L586.746082,266.023529 L502.351097,266.023529 C492.973877,266.023529 485.606061,257.976471 485.606061,249.258824 L485.606061,169.458824 C485.606061,160.741176 492.304075,152.694118 502.351097,152.694118 L586.746082,152.694118 L586.746082,176.835294 L516.416928,176.835294 C515.077325,176.835294 513.737722,178.176471 513.737722,179.517647 L513.737722,196.952941 L584.736677,196.952941 L584.736677,220.423529 L513.737722,220.423529 L513.737722,240.541176 C513.737722,241.882353 515.077325,243.223529 516.416928,243.223529 Z M634.301985,267.364706 L634.301985,266.694118 L606.170324,266.694118 L606.170324,170.129412 C606.170324,161.411765 612.868339,153.364706 622.915361,153.364706 L707.310345,153.364706 L707.310345,177.505882 L636.981191,177.505882 C635.641588,177.505882 634.301985,178.847059 634.301985,180.188235 L634.301985,267.364706 Z M1148.70951,210.364706 C1148.70951,249.258824 1131.29467,268.035294 1087.75758,268.705882 L1078.38036,268.705882 C1035.51306,268.705882 1018.09822,249.258824 1018.09822,210.364706 C1018.09822,170.8 1035.51306,152.023529 1078.38036,152.023529 L1088.42738,152.023529 C1131.29467,152.023529 1148.70951,170.8 1148.70951,210.364706 Z M1087.75758,244.564706 C1111.87043,244.564706 1120.57785,233.835294 1120.57785,210.364706 C1120.57785,187.564706 1111.87043,176.164706 1087.75758,176.164706 L1078.38036,176.164706 C1053.5977,176.164706 1045.56008,187.564706 1045.56008,210.364706 C1045.56008,233.835294 1054.9373,244.564706 1078.38036,244.564706 L1087.75758,244.564706 Z M939.061651,135.258824 C980.589342,135.258824 998.00418,156.717647 998.673981,193.6 C998.673981,199.635294 998.00418,205 997.334378,209.694118 C992.645768,235.847059 977.240334,251.941176 937.722048,251.941176 L925.665622,251.941176 L925.665622,266.694118 L897.53396,266.694118 L897.53396,251.941176 L884.807732,251.941176 C845.289446,251.941176 829.884013,235.847059 825.195402,209.694118 C824.525601,205 823.855799,199.635294 823.855799,193.6 C823.855799,156.717647 840.600836,135.258824 882.798328,135.258824 L939.061651,135.258824 Z M896.194357,228.470588 L896.864159,228.470588 L896.864159,159.4 L879.449321,159.4 C863.374086,159.4 851.987461,169.458824 851.987461,193.6 C851.987461,199.635294 851.987461,205.670588 853.327064,209.694118 C857.345873,221.094118 864.043887,228.470588 883.46813,228.470588 L896.194357,228.470588 Z M968.532915,210.364706 C969.872518,205.670588 969.872518,200.305882 970.54232,193.6 C970.54232,169.458824 959.155695,159.4 943.08046,159.4 L925.665622,159.4 L925.665622,229.141176 L938.39185,229.141176 C957.14629,229.141176 964.514107,221.764706 968.532915,210.364706 Z" id="Combined-Shape"></path>
        </g>
    </g>
</svg>