<?xml version="1.0" encoding="UTF-8"?>
<svg width="840px" height="395px" viewBox="0 0 840 395" version="1.1" xmlns="http://www.w3.org/2000/svg" xmlns:xlink="http://www.w3.org/1999/xlink">
    <!-- Generator: Sketch 53.2 (72643) - https://sketchapp.com -->
    <title>megafon-vert</title>
    <desc>Created with Sketch.</desc>
    <g id="Page-1" stroke="none" stroke-width="1" fill="none" fill-rule="evenodd">
        <g id="Group-2" fill="#000000" fill-rule="nonzero">
            <path d="M796.504033,302.64532 L819,302.64532 L819,393.926109 L796.504033,393.926109 L796.504033,356.876848 L750.440858,356.876848 L750.440858,393.926109 L727.409274,393.926109 L727.409274,302.64532 L750.440858,302.64532 L750.440858,337.009852 L796.504033,337.009852 L796.504033,302.64532 Z M417.286291,312.84729 L454.243952,393.926109 L430.141129,393.926109 L422.106855,374.596059 L374.972446,374.596059 L366.938172,393.926109 L342.835349,393.926109 L379.793011,312.84729 C383.542339,304.793103 391.040995,300.497537 398.539651,300.497537 C406.038306,300.497537 413.536963,304.793103 417.286291,312.84729 Z M382.471102,356.339901 L413.536963,356.339901 L399.610888,323.049261 C399.610888,321.975369 398.539651,321.975369 398.004032,321.975369 C397.468414,321.975369 396.932796,321.975369 396.397178,323.049261 L382.471102,356.339901 Z M146.263441,286 C156.440188,286 166.616935,293.517241 166.616935,309.08867 L166.616935,393.926109 L144.120968,393.926109 L144.120968,311.236453 L114.126344,379.428572 C110.377017,389.093596 103.949597,395 94.3084681,395 C85.2029573,395 78.2399197,389.093596 74.4905919,379.428572 L44.4959682,311.236453 L44.4959682,393.389163 L22,393.389163 L22,308.551724 C22,292.980296 32.1767475,286 42.3534949,286 C53.0658603,286 60.0288979,291.906404 64.8494623,303.182266 L94.3084681,371.91133 L123.767473,303.182266 C128.588038,291.906404 135.551075,286 146.263441,286 Z M206.788307,374.596059 L206.788307,373.522168 L263.028226,373.522168 L263.028226,392.852217 L195.540323,392.852217 C188.041667,392.852217 182.149866,386.408868 182.149866,379.428572 L182.149866,315.53202 C182.149866,308.551724 187.506048,302.108374 195.540323,302.108374 L263.028226,302.108374 L263.028226,321.438423 L206.788307,321.438423 C205.71707,321.438423 204.645833,322.512315 204.645833,323.586207 L204.645833,337.546798 L261.421371,337.546798 L261.421371,356.339901 L204.645833,356.339901 L204.645833,372.448276 C204.645833,373.522168 205.71707,374.596059 206.788307,374.596059 Z M301.057123,393.926109 L301.057123,393.389163 L278.561156,393.389163 L278.561156,316.068966 C278.561156,309.08867 283.917339,302.64532 291.951613,302.64532 L359.439516,302.64532 L359.439516,321.975369 L303.199597,321.975369 C302.12836,321.975369 301.057123,323.049261 301.057123,324.123152 L301.057123,393.926109 Z M712.411963,348.285714 C712.411963,379.428572 698.485886,394.463054 663.670702,395 L656.172047,395 C621.892472,395 607.966395,379.428572 607.966395,348.285714 C607.966395,316.605911 621.892472,301.571428 656.172047,301.571428 L664.206319,301.571428 C698.485886,301.571428 712.411963,316.605911 712.411963,348.285714 Z M663.670702,375.669951 C682.952958,375.669951 689.915997,367.078818 689.915997,348.285714 C689.915997,330.029557 682.952958,320.901478 663.670702,320.901478 L656.172047,320.901478 C636.354166,320.901478 629.926744,330.029557 629.926744,348.285714 C629.926744,367.078818 637.4254,375.669951 656.172047,375.669951 L663.670702,375.669951 Z M544.763441,288.147783 C577.971774,288.147783 591.89785,305.330049 592.433468,334.862069 C592.433468,339.694581 591.89785,343.990148 591.362231,347.748769 C587.612903,368.689655 575.293683,381.576355 543.692204,381.576355 L534.051076,381.576355 L534.051076,393.389163 L511.555107,393.389163 L511.555107,381.576355 L501.37836,381.576355 C469.776882,381.576355 457.457662,368.689655 453.708333,347.748769 C453.172715,343.990148 452.637097,339.694581 452.637097,334.862069 C452.637097,305.330049 466.027554,288.147783 499.771505,288.147783 L544.763441,288.147783 Z M510.483871,362.783251 L511.019489,362.783251 L511.019489,307.477832 L497.093414,307.477832 C484.238576,307.477832 475.133065,315.53202 475.133065,334.862069 C475.133065,339.694581 475.133065,344.527093 476.204301,347.748769 C479.418011,356.876848 484.774193,362.783251 500.307124,362.783251 L510.483871,362.783251 Z M568.330645,348.285714 C569.401882,344.527093 569.401882,340.231527 569.9375,334.862069 C569.9375,315.53202 560.831989,307.477832 547.977151,307.477832 L534.051076,307.477832 L534.051076,363.320197 L544.227823,363.320197 C559.225134,363.320197 565.116936,357.413793 568.330645,348.285714 Z M434.932079,0.6705882 C491.195402,7.3764706 534.732497,55.658824 534.732497,114 C534.732497,177.035294 483.827586,228 420.866249,228 C416.84744,228 413.498433,227.329412 410.149425,227.329412 L410.149425,128.752941 C410.149425,128.082353 410.819227,127.411765 411.489028,127.411765 L425.554859,127.411765 C430.913271,127.411765 434.932079,123.388235 434.932079,118.023529 L434.932079,0.6705882 Z M420.866249,4.26325641e-14 L420.866249,111.988235 C420.866249,112.658824 420.196447,113.329412 419.526646,113.329412 L410.149425,113.329412 L405.460815,113.329412 C400.772205,114 396.753396,118.023529 396.753396,122.717647 L396.753396,225.317647 C345.178683,214.588235 307,168.988235 307,114 C307,50.964706 357.904911,4.26325641e-14 420.866249,4.26325641e-14 Z M432.252874,176.364706 C440.290491,176.364706 446.988506,169.658824 446.318704,162.282353 C446.318704,154.905882 440.290491,148.2 432.252874,148.2 C424.885057,148.2 418.187043,154.235294 418.187043,162.282353 C418.187043,169.658824 424.215256,176.364706 432.252874,176.364706 Z M465.742947,176.364706 C473.780564,176.364706 479.808777,169.658824 479.808777,162.282353 C479.808777,154.905882 473.780564,148.2 465.742947,148.2 C458.375131,148.2 451.677116,154.235294 451.677116,162.282353 C451.677116,169.658824 457.705329,176.364706 465.742947,176.364706 Z M499.23302,176.364706 C507.270637,176.364706 513.298851,169.658824 513.298851,162.282353 C513.298851,154.905882 507.270637,148.2 499.23302,148.2 C491.865204,148.2 485.167189,154.235294 485.167189,162.282353 C485.167189,169.658824 491.195402,176.364706 499.23302,176.364706 Z M398.7628,93.882353 C406.800418,93.882353 412.828631,87.176471 412.828631,79.8 C412.828631,72.423529 406.800418,65.717647 398.7628,65.717647 C391.394984,65.717647 384.69697,71.752941 384.69697,79.8 C384.69697,87.176471 390.725183,93.882353 398.7628,93.882353 Z" id="Combined-Shape"></path>
        </g>
    </g>
</svg>