<?xml version="1.0" encoding="UTF-8"?>
<svg width="840px" height="411px" viewBox="0 0 840 411" version="1.1" xmlns="http://www.w3.org/2000/svg" xmlns:xlink="http://www.w3.org/1999/xlink">
    <!-- Generator: Sketch 53.2 (72643) - https://sketchapp.com -->
    <title>rostelecom-vert</title>
    <desc>Created with Sketch.</desc>
    <g id="Page-1" stroke="none" stroke-width="1" fill="none" fill-rule="evenodd">
        <g id="Combined-Shape-2" fill="#000000" fill-rule="nonzero">
            <path d="M779.080331,389.123795 C779.531452,387.943865 799.078642,335.384929 799.078642,335.384929 L818.36197,335.384929 L818.36197,408.69675 L802.070518,408.69675 L802.070518,367.29943 C802.070518,367.29943 792.082001,394.984403 787.906996,406.939869 L787.251592,408.887621 L770.90907,408.887621 L770.253666,406.939869 C766.078661,394.984403 756.090144,367.29943 756.090144,367.29943 L756.090144,408.69675 L739.798692,408.69675 L739.798692,335.384929 L759.077762,335.384929 C759.077762,335.384929 778.633468,387.943865 779.080331,389.123795 Z M333.36139,335.233968 L333.36139,351.345216 L312.865141,351.345216 L312.865141,408.406973 L295.164995,408.406973 L295.164995,351.388596 L274.655979,351.388596 L274.655979,335.233968 L333.36139,335.233968 Z M451.016925,351.687916 C449.98275,363.426484 448.761316,377.585642 447.510092,389.293844 C447.156855,392.651438 446.339729,396.030723 445.211925,399.206122 C443.262738,404.698002 439.334574,408.194412 433.589155,409.179133 C428.831097,409.994672 424.090063,409.730056 419.268167,408.502408 C420.089549,403.07126 420.88114,397.804956 421.694011,392.39116 C422.455811,392.529975 423.102702,392.660114 423.749593,392.768564 C428.05653,393.50602 430.141904,392.00508 430.571746,387.567329 C432.018741,372.601306 433.393385,357.62227 434.802077,342.651909 C434.802077,342.651909 435.236175,337.736981 435.47876,335.233968 L491.579581,335.233968 L491.579581,408.51976 L474.062438,408.51976 L474.062438,352.056645 C472.947401,352.056645 456.779367,352.100024 450.693479,352.026279 L451.016925,351.687916 Z M21,408.716704 L21,305 L67.120816,305 C78.849982,305 88.149048,307.962838 95.009504,313.897191 C101.865704,319.827207 105.295932,328.147448 105.295932,338.849238 C105.295932,349.555367 101.865704,357.84958 95.009504,363.731877 C88.149048,369.609837 78.849982,372.555324 67.120816,372.555324 L40.155651,372.555324 L40.155651,408.716704 L21,408.716704 Z M40.155651,322.503739 L40.155651,355.051584 L66.554786,355.051584 C73.083284,355.051584 77.97753,353.62439 81.246035,350.783014 C84.506027,347.941639 86.14028,343.963714 86.14028,338.849238 C86.14028,333.739101 84.506027,329.735147 81.246035,326.841716 C77.97753,323.952623 73.083284,322.503739 66.554786,322.503739 L40.155651,322.503739 Z M175.670075,343.47786 C183.475333,350.327527 187.377962,359.82336 187.377962,371.974035 C187.377962,384.12471 183.475333,393.62488 175.670075,400.470209 C167.864818,407.319875 158.612566,410.74254 147.921831,410.74254 C137.235352,410.74254 128.008636,407.319875 120.254448,400.470209 C112.487493,393.62488 108.6104,384.12471 108.6104,371.974035 C108.6104,359.82336 112.487493,350.327527 120.254448,343.47786 C128.008636,336.632532 137.235352,333.209867 147.921831,333.209867 C158.612566,333.209867 167.864818,336.632532 175.670075,343.47786 Z M133.307188,387.521346 C137.375796,391.434202 142.244506,393.386292 147.921831,393.386292 C153.599156,393.386292 158.493402,391.434202 162.61308,387.521346 C166.724246,383.621504 168.788341,378.441959 168.788341,371.974035 C168.788341,365.514786 166.724246,360.356931 162.61308,356.500469 C158.493402,352.639669 153.599156,350.713607 147.921831,350.713607 C142.244506,350.713607 137.375796,352.639669 133.307188,356.500469 C129.238581,360.356931 127.200021,365.514786 127.200021,371.974035 C127.200021,378.441959 129.238581,383.621504 133.307188,387.521346 Z M252.022008,379.787166 L266.92605,389.621361 C260.01878,403.702436 248.753504,410.742974 233.147244,410.742974 C222.269251,410.742974 213.229793,407.177156 206.03738,400.036845 C198.849222,392.900872 195.253016,383.548192 195.253016,371.974468 C195.253016,360.500518 198.942852,351.16519 206.326778,343.985837 C213.702194,336.802147 222.648023,333.205963 233.147244,333.205963 C241.092945,333.205963 247.953401,334.945492 253.720099,338.415874 C259.495308,341.886256 263.653289,346.801185 266.21532,353.164998 L251.170835,363.294175 C247.383115,354.904527 241.327018,350.714041 233.002544,350.714041 C227.512478,350.714041 222.954445,352.66613 219.307168,356.57031 C215.668403,360.478828 213.842637,365.610655 213.842637,371.974468 C213.842637,378.438055 215.638613,383.6176 219.243331,387.526118 C222.835282,391.430298 227.423104,393.382387 233.002544,393.382387 C237.637182,393.382387 241.424903,392.250175 244.357194,389.985751 C247.289485,387.716989 249.843005,384.320352 252.022008,379.787166 Z M412.419202,376.457334 L356.931226,376.457334 C357.493,382.053325 359.574118,386.512766 363.170325,389.839995 C366.766531,393.167224 371.264981,394.828669 376.661419,394.828669 C385.454037,394.828669 392.076164,390.3432 396.5278,381.376601 L410.29127,389.332452 C403.477628,403.604398 392.169793,410.740371 376.367764,410.740371 C366.055802,410.740371 357.305742,407.126835 350.113328,399.891089 C342.925172,392.65968 339.333221,383.354719 339.333221,371.976204 C339.333221,360.597689 342.976242,351.288389 350.262284,344.05698 C357.539814,336.825572 366.532459,333.207698 377.223193,333.207698 C387.535156,333.207698 395.978793,336.652053 402.558362,343.553775 C409.133674,350.446821 412.419202,359.24424 412.419202,369.950368 L412.419202,376.457334 Z M376.661419,347.384209 C371.92464,347.384209 367.783683,348.854783 364.238547,351.795932 C360.689155,354.737081 358.2548,358.4287 356.931226,362.862113 L395.527671,362.862113 C394.676498,358.038282 392.59538,354.255565 389.288573,351.509626 C385.973253,348.759348 381.764202,347.384209 376.661419,347.384209 Z M574.158697,376.457334 L518.67072,376.457334 C519.23675,382.053325 521.313612,386.512766 524.918331,389.839995 C528.506025,393.167224 533.004476,394.828669 538.400913,394.828669 C547.193531,394.828669 553.819914,390.3432 558.267294,381.376601 L572.030764,389.332452 C565.217123,403.604398 553.909288,410.740371 538.107258,410.740371 C527.799552,410.740371 519.049492,407.126835 511.857079,399.891089 C504.664666,392.65968 501.072715,383.354719 501.072715,371.976204 C501.072715,360.597689 504.715736,351.288389 512.001778,344.05698 C519.283564,336.825572 528.276208,333.207698 538.962688,333.207698 C549.27465,333.207698 557.722544,336.652053 564.297856,343.553775 C570.873168,350.446821 574.158697,359.24424 574.158697,369.950368 L574.158697,376.457334 Z M538.400913,347.384209 C533.664135,347.384209 529.531689,348.854783 525.982297,351.795932 C522.437161,354.737081 519.994294,358.4287 518.67072,362.862113 L557.271422,362.862113 C556.420248,358.038282 554.343386,354.255565 551.028067,351.509626 C547.712747,348.759348 543.507952,347.384209 538.400913,347.384209 Z M718.596392,343.47786 C726.401652,350.327527 730.304279,359.82336 730.304279,371.974035 C730.304279,384.12471 726.401652,393.62488 718.596392,400.470209 C710.791138,407.319875 701.53463,410.74254 690.848149,410.74254 C680.161674,410.74254 670.934957,407.319875 663.180767,400.470209 C655.41381,393.62488 651.540975,384.12471 651.540975,371.974035 C651.540975,359.82336 655.41381,350.327527 663.180767,343.47786 C670.934957,336.632532 680.161674,333.209867 690.848149,333.209867 C701.53463,333.209867 710.791138,336.632532 718.596392,343.47786 Z M676.233506,387.521346 C680.302114,391.434202 685.170825,393.386292 690.848149,393.386292 C696.52122,393.386292 701.419718,391.434202 705.539401,387.521346 C709.650563,383.621504 711.714657,378.441959 711.714657,371.974035 C711.714657,365.514786 709.650563,360.356931 705.539401,356.500469 C701.419718,352.639669 696.52122,350.713607 690.848149,350.713607 C685.170825,350.713607 680.302114,352.639669 676.233506,356.500469 C672.164898,360.356931 670.126339,365.514786 670.126339,371.974035 C670.126339,378.441959 672.164898,383.621504 676.233506,387.521346 Z M655.244428,408.365328 L633.658679,408.365328 L602.148249,371.041369 L601.897154,371.041369 L601.897154,408.365328 L584.528964,408.365328 L584.528964,335.279083 L601.897154,335.279083 L601.897154,369.748652 L602.148249,369.748652 L631.30093,335.279083 L652.018482,335.279083 L621.37625,370.130394 L655.244428,408.365328 Z M399.037514,186.046121 L464.158416,254 L363.002569,254 C351.955455,254 343,245.055756 343,234.022472 L343,127.570787 L343.013005,127.584357 L343,95.892135 C343,77.05618 347.000514,54.0095797 360.716561,40.3107033 L405.865216,0 L495.591024,89.613483 L399.037514,186.046121 Z M353.001284,232.024719 L353.001284,234.022472 C353.001284,239.539114 357.479012,244.011236 363.002569,244.011236 L440.10643,244.011236 L391.739593,193.334906 L353.001284,232.024719 Z" id="Combined-Shape"></path>
        </g>
    </g>
</svg>