<?xml version="1.0" encoding="UTF-8"?>
<svg width="969px" height="411px" viewBox="0 0 969 411" version="1.1" xmlns="http://www.w3.org/2000/svg" xmlns:xlink="http://www.w3.org/1999/xlink">
    <!-- Generator: Sketch 53.2 (72643) - https://sketchapp.com -->
    <title>rostelecom</title>
    <desc>Created with Sketch.</desc>
    <g id="Page-1" stroke="none" stroke-width="1" fill="none" fill-rule="evenodd">
        <g id="Shape-2" fill="#000000">
            <path d="M10.0012844,272.024719 L10.0012844,274.022472 C10.0012844,279.539114 14.4790119,284.011236 20.0025688,284.011236 L97.1064298,284.011236 L48.7395931,233.334906 L10.0012844,272.024719 L10.0012844,272.024719 Z M56.0375144,226.046121 L121.158416,294 L20.0025688,294 C8.95545507,294 1.38795702e-15,285.055756 0,274.022472 L0,167.570787 L0.0130048962,167.584357 L1.59892649e-13,135.892135 C1.59892649e-13,117.05618 4.00051375,94.0095797 17.7165609,80.3107033 L62.8652161,40 L152.591024,129.613483 L56.0375144,226.046121 Z M929.718361,248.207533 C930.169482,247.027603 949.716672,194.468667 949.716672,194.468667 L969,194.468667 L969,267.780488 L952.708548,267.780488 L952.708548,226.383168 C952.708548,226.383168 942.720031,254.068141 938.545026,266.023607 L937.889622,267.971359 L921.5471,267.971359 L920.891696,266.023607 C916.716691,254.068141 906.728174,226.383168 906.728174,226.383168 L906.728174,267.780488 L890.436722,267.780488 L890.436722,194.468667 L909.715792,194.468667 C909.715792,194.468667 929.271498,247.027603 929.718361,248.207533 Z M483.99942,194.317706 L483.99942,210.428954 L463.503171,210.428954 L463.503171,267.490711 L445.803025,267.490711 L445.803025,210.472334 L425.294009,210.472334 L425.294009,194.317706 L483.99942,194.317706 Z M601.654955,210.771654 C600.62078,222.510222 599.399346,236.66938 598.148122,248.377582 C597.794885,251.735176 596.977759,255.114461 595.849955,258.28986 C593.900768,263.78174 589.972604,267.27815 584.227185,268.262871 C579.469127,269.07841 574.728093,268.813794 569.906197,267.586146 C570.727579,262.154998 571.51917,256.888694 572.332041,251.474898 C573.093841,251.613713 573.740732,251.743852 574.387623,251.852302 C578.69456,252.589758 580.779934,251.088818 581.209776,246.651067 C582.656771,231.685044 584.031415,216.706008 585.440107,201.735647 C585.440107,201.735647 585.874205,196.820719 586.11679,194.317706 L642.217611,194.317706 L642.217611,267.603498 L624.700468,267.603498 L624.700468,211.140383 C623.585431,211.140383 607.417397,211.183762 601.331509,211.110017 L601.654955,210.771654 Z M171.63803,267.800442 L171.63803,164.083738 L217.758846,164.083738 C229.488012,164.083738 238.787078,167.046576 245.647534,172.980929 C252.503734,178.910945 255.933962,187.231186 255.933962,197.932976 C255.933962,208.639105 252.503734,216.933318 245.647534,222.815615 C238.787078,228.693575 229.488012,231.639062 217.758846,231.639062 L190.793681,231.639062 L190.793681,267.800442 L171.63803,267.800442 Z M190.793681,181.587477 L190.793681,214.135322 L217.192816,214.135322 C223.721314,214.135322 228.61556,212.708128 231.884065,209.866752 C235.144057,207.025377 236.77831,203.047452 236.77831,197.932976 C236.77831,192.822839 235.144057,188.818885 231.884065,185.925454 C228.61556,183.036361 223.721314,181.587477 217.192816,181.587477 L190.793681,181.587477 Z M326.308105,202.561598 C334.113363,209.411265 338.015992,218.907098 338.015992,231.057773 C338.015992,243.208448 334.113363,252.708618 326.308105,259.553947 C318.502848,266.403613 309.250596,269.826278 298.559861,269.826278 C287.873382,269.826278 278.646666,266.403613 270.892478,259.553947 C263.125523,252.708618 259.24843,243.208448 259.24843,231.057773 C259.24843,218.907098 263.125523,209.411265 270.892478,202.561598 C278.646666,195.71627 287.873382,192.293605 298.559861,192.293605 C309.250596,192.293605 318.502848,195.71627 326.308105,202.561598 Z M283.945218,246.605084 C288.013826,250.51794 292.882536,252.47003 298.559861,252.47003 C304.237186,252.47003 309.131432,250.51794 313.25111,246.605084 C317.362276,242.705242 319.426371,237.525697 319.426371,231.057773 C319.426371,224.598524 317.362276,219.440669 313.25111,215.584207 C309.131432,211.723407 304.237186,209.797345 298.559861,209.797345 C292.882536,209.797345 288.013826,211.723407 283.945218,215.584207 C279.876611,219.440669 277.838051,224.598524 277.838051,231.057773 C277.838051,237.525697 279.876611,242.705242 283.945218,246.605084 Z M402.660038,238.870904 L417.56408,248.705099 C410.65681,262.786174 399.391534,269.826712 383.785274,269.826712 C372.907281,269.826712 363.867823,266.260894 356.67541,259.120583 C349.487252,251.98461 345.891046,242.63193 345.891046,231.058206 C345.891046,219.584256 349.580882,210.248928 356.964808,203.069575 C364.340224,195.885885 373.286053,192.289701 383.785274,192.289701 C391.730975,192.289701 398.591431,194.02923 404.358129,197.499612 C410.133338,200.969994 414.291319,205.884923 416.85335,212.248736 L401.808865,222.377913 C398.021145,213.988265 391.965048,209.797779 383.640574,209.797779 C378.150508,209.797779 373.592475,211.749868 369.945198,215.654048 C366.306433,219.562566 364.480667,224.694393 364.480667,231.058206 C364.480667,237.521793 366.276643,242.701338 369.881361,246.609856 C373.473312,250.514036 378.061134,252.466125 383.640574,252.466125 C388.275212,252.466125 392.062933,251.333913 394.995224,249.069489 C397.927515,246.800727 400.481035,243.40409 402.660038,238.870904 Z M563.057232,235.541072 L507.569256,235.541072 C508.13103,241.137063 510.212148,245.596504 513.808355,248.923733 C517.404561,252.250962 521.903011,253.912407 527.299449,253.912407 C536.092067,253.912407 542.714194,249.426938 547.16583,240.460339 L560.9293,248.41619 C554.115658,262.688136 542.807823,269.824109 527.005794,269.824109 C516.693832,269.824109 507.943772,266.210573 500.751358,258.974827 C493.563202,251.743418 489.971251,242.438457 489.971251,231.059942 C489.971251,219.681427 493.614272,210.372127 500.900314,203.140718 C508.177844,195.90931 517.170489,192.291436 527.861223,192.291436 C538.173186,192.291436 546.616823,195.735791 553.196392,202.637513 C559.771704,209.530559 563.057232,218.327978 563.057232,229.034106 L563.057232,235.541072 Z M527.299449,206.467947 C522.56267,206.467947 518.421713,207.938521 514.876577,210.87967 C511.327185,213.820819 508.89283,217.512438 507.569256,221.945851 L546.165701,221.945851 C545.314528,217.12202 543.23341,213.339303 539.926603,210.593364 C536.611283,207.843086 532.402232,206.467947 527.299449,206.467947 Z M724.796727,235.541072 L669.30875,235.541072 C669.87478,241.137063 671.951642,245.596504 675.556361,248.923733 C679.144055,252.250962 683.642506,253.912407 689.038943,253.912407 C697.831561,253.912407 704.457944,249.426938 708.905324,240.460339 L722.668794,248.41619 C715.855153,262.688136 704.547318,269.824109 688.745288,269.824109 C678.437582,269.824109 669.687522,266.210573 662.495109,258.974827 C655.302696,251.743418 651.710745,242.438457 651.710745,231.059942 C651.710745,219.681427 655.353766,210.372127 662.639808,203.140718 C669.921594,195.90931 678.914238,192.291436 689.600718,192.291436 C699.91268,192.291436 708.360574,195.735791 714.935886,202.637513 C721.511198,209.530559 724.796727,218.327978 724.796727,229.034106 L724.796727,235.541072 Z M689.038943,206.467947 C684.302165,206.467947 680.169719,207.938521 676.620327,210.87967 C673.075191,213.820819 670.632324,217.512438 669.30875,221.945851 L707.909452,221.945851 C707.058278,217.12202 704.981416,213.339303 701.666097,210.593364 C698.350777,207.843086 694.145982,206.467947 689.038943,206.467947 Z M869.234422,202.561598 C877.039682,209.411265 880.942309,218.907098 880.942309,231.057773 C880.942309,243.208448 877.039682,252.708618 869.234422,259.553947 C861.429168,266.403613 852.17266,269.826278 841.486179,269.826278 C830.799704,269.826278 821.572987,266.403613 813.818797,259.553947 C806.05184,252.708618 802.179005,243.208448 802.179005,231.057773 C802.179005,218.907098 806.05184,209.411265 813.818797,202.561598 C821.572987,195.71627 830.799704,192.293605 841.486179,192.293605 C852.17266,192.293605 861.429168,195.71627 869.234422,202.561598 Z M826.871536,246.605084 C830.940144,250.51794 835.808855,252.47003 841.486179,252.47003 C847.15925,252.47003 852.057748,250.51794 856.177431,246.605084 C860.288593,242.705242 862.352687,237.525697 862.352687,231.057773 C862.352687,224.598524 860.288593,219.440669 856.177431,215.584207 C852.057748,211.723407 847.15925,209.797345 841.486179,209.797345 C835.808855,209.797345 830.940144,211.723407 826.871536,215.584207 C822.802928,219.440669 820.764369,224.598524 820.764369,231.057773 C820.764369,237.525697 822.802928,242.705242 826.871536,246.605084 Z M805.882458,267.449066 L784.296709,267.449066 L752.786279,230.125107 L752.535184,230.125107 L752.535184,267.449066 L735.166994,267.449066 L735.166994,194.362821 L752.535184,194.362821 L752.535184,228.83239 L752.786279,228.83239 L781.93896,194.362821 L802.656512,194.362821 L772.01428,229.214132 L805.882458,267.449066 Z" id="Shape"></path>
        </g>
    </g>
</svg>