<?xml version="1.0" encoding="UTF-8"?>
<svg width="1160px" height="411px" viewBox="0 0 1160 411" version="1.1" xmlns="http://www.w3.org/2000/svg" xmlns:xlink="http://www.w3.org/1999/xlink">
    <!-- Generator: Sketch 53.2 (72643) - https://sketchapp.com -->
    <title>sberbank</title>
    <desc>Created with Sketch.</desc>
    <g id="Page-1" stroke="none" stroke-width="1" fill="none" fill-rule="evenodd">
        <g id="Combined-Shape-3" fill="#000000" fill-rule="nonzero">
            <path d="M302.358295,235.458515 C298.038891,230.655022 294.679355,224.41048 293.239553,216.244541 C290.839884,209.039301 289.880017,200.393013 289.880017,191.266376 C289.880017,181.659389 290.839884,172.532751 293.239553,164.847162 C295.639222,157.161572 298.998759,150.436681 303.798097,145.152838 C308.597435,139.868996 314.836574,135.545852 322.035581,132.663755 C329.714522,129.781659 338.353331,128.340611 348.911874,128.340611 C351.311543,128.340611 354.191146,128.820961 357.070749,128.820961 C360.430285,129.30131 363.309888,129.30131 366.669425,129.781659 C370.028962,130.262009 372.908564,130.742358 375.788167,131.703057 C378.66777,132.663755 381.067439,133.624454 383.467108,134.585153 L383.467108,158.122271 L375.788167,158.122271 C374.348366,150.917031 371.468763,145.152838 366.669425,141.790393 C361.870087,138.427948 356.110881,136.50655 349.391808,136.50655 C342.192801,136.50655 336.433595,138.427948 332.114191,141.310044 C327.794787,144.672489 324.915184,148.515284 322.515515,153.318777 C320.115846,158.122271 318.676045,163.406114 318.196111,169.650655 C317.716177,175.895197 317.236243,182.139738 317.236243,187.90393 C317.236243,195.58952 317.716177,202.31441 318.676045,209.039301 C319.635912,215.283843 321.555647,221.048035 323.955317,225.851528 C326.834919,230.174672 330.194456,234.017467 334.993794,236.899563 C339.313198,239.781659 345.552338,241.222707 352.751345,241.222707 C356.590815,241.222707 359.950352,241.222707 362.829954,240.742358 C365.709557,240.742358 368.109226,239.781659 370.508895,239.30131 C372.908564,238.340611 374.8283,237.860262 376.748035,236.899563 C378.66777,235.938865 380.587505,234.978166 382.50724,234.017467 L385.866777,241.222707 C383.947042,242.183406 381.547373,243.144105 379.147704,244.585153 C376.268101,245.545852 373.388498,246.9869 370.028962,247.947598 C366.669425,249.388646 363.309888,250.349345 358.990484,250.829694 C355.151014,251.310044 350.351676,251.790393 345.552338,251.790393 C335.473728,251.790393 327.314853,250.349345 320.115846,247.467249 C312.916839,244.585153 307.157633,240.742358 302.358295,235.458515 Z M771.733554,247.947598 C765.494415,248.908297 759.255275,248.908297 752.056268,248.908297 L707.422424,248.908297 L707.422424,245.065502 C707.902358,245.065502 708.382292,245.065502 709.822094,244.585153 C711.261895,244.585153 712.221763,243.624454 712.701696,243.144105 C713.661564,242.663755 714.141498,241.703057 714.141498,240.262009 C714.621432,239.30131 714.621432,237.379913 714.621432,235.458515 L714.621432,211.441048 L714.621432,167.729258 L714.621432,143.71179 C714.621432,141.790393 714.141498,140.349345 714.141498,138.908297 C713.661564,137.467249 713.18163,136.50655 712.701696,136.026201 C712.221763,135.545852 711.261895,135.065502 709.822094,134.585153 C708.382292,134.585153 707.902358,134.104803 707.422424,134.104803 L707.422424,130.262009 L714.141498,130.262009 L795.730244,130.262009 L795.730244,156.681223 L789.491105,156.681223 C788.531237,152.358079 787.091436,148.995633 786.131568,146.593886 C785.1717,144.19214 783.731899,142.270742 781.812164,140.829694 C780.372362,139.388646 777.972693,138.908297 775.093091,138.427948 C772.213488,137.947598 768.374017,137.947598 764.054613,137.947598 L749.656599,137.947598 C745.817129,137.947598 743.41746,137.947598 741.977658,138.908297 C740.537857,139.868996 740.057923,141.790393 740.057923,144.672489 L740.057923,173.0131 L750.136533,173.0131 C759.735209,173.0131 767.894084,173.49345 774.613157,174.934498 C781.33223,176.375546 786.611502,178.296943 790.930906,181.179039 C795.25031,184.541485 798.129913,187.90393 800.049648,192.707424 C801.969384,197.510917 802.929251,202.79476 802.929251,209.519651 C802.929251,218.646288 801.48945,225.851528 798.609847,231.135371 C796.210178,236.419214 792.370707,240.262009 787.571369,243.144105 C783.251965,245.545852 777.49276,247.467249 771.733554,247.947598 Z M742.457592,239.30131 C743.41746,240.262009 744.857261,240.742358 746.297062,241.222707 C747.736864,241.703057 750.136533,241.703057 753.016136,242.183406 C755.895739,242.183406 758.775341,241.703057 761.654944,241.222707 C764.054613,240.262009 766.454282,238.820961 768.853951,236.899563 C771.25362,234.497817 772.693422,231.615721 774.133223,227.292576 C775.573024,222.969432 776.052958,217.68559 776.052958,210.480349 C776.052958,199.912664 774.133223,192.227074 770.293753,187.423581 C766.454282,182.620087 759.735209,180.218341 750.616467,180.218341 L740.537857,180.218341 L740.537857,230.174672 C740.537857,232.576419 741.017791,234.497817 741.017791,235.938865 C741.017791,237.379913 741.497724,238.340611 742.457592,239.30131 Z M645.510964,245.065502 L645.510964,248.427948 L606.636326,248.427948 L606.636326,244.585153 C607.11626,244.585153 607.596194,244.585153 609.035995,244.104803 C610.475796,244.104803 611.435664,243.144105 611.915598,242.663755 C612.875465,242.183406 613.355399,241.222707 613.355399,239.781659 C613.835333,238.820961 613.835333,236.899563 613.835333,234.978166 L613.835333,143.71179 C613.835333,141.790393 613.355399,140.349345 613.355399,138.908297 C612.875465,137.467249 612.395532,136.50655 611.915598,136.026201 C611.435664,135.545852 610.475796,135.065502 609.035995,134.585153 C607.596194,134.585153 607.11626,134.104803 606.636326,134.104803 L606.636326,130.262009 L613.355399,130.262009 L653.669839,130.262009 C659.429044,130.262009 664.708316,130.742358 669.987588,131.222707 C675.26686,131.703057 680.066198,133.144105 683.905668,135.545852 C687.745139,137.947598 691.104675,141.790393 693.504344,146.113537 C695.424079,150.436681 696.863881,156.681223 696.863881,164.366812 C696.863881,172.532751 695.424079,179.257642 693.02441,184.061135 C690.624741,189.344978 687.265205,192.707424 682.945801,195.58952 C678.626396,197.991266 673.827058,199.912664 668.067853,200.873362 C662.308647,201.834061 656.549441,202.31441 650.310302,202.31441 L638.311957,202.31441 L638.311957,235.458515 C638.311957,237.379913 638.791891,238.820961 638.791891,240.262009 C639.271825,241.703057 639.751758,242.663755 640.231692,243.144105 C640.711626,243.624454 641.671494,244.104803 643.111295,244.585153 C644.551096,244.585153 645.03103,245.065502 645.510964,245.065502 Z M638.791891,143.71179 L638.791891,194.628821 L650.790236,194.628821 C657.989243,194.628821 663.268515,191.746725 666.148118,186.462882 C669.02772,181.179039 670.467522,173.49345 670.467522,163.406114 C670.467522,158.60262 669.987588,154.279476 669.02772,150.917031 C667.587919,147.554585 666.148118,144.672489 664.228382,142.751092 C661.828713,140.829694 659.908978,139.388646 657.029375,138.427948 C654.149772,137.947598 651.27017,137.467249 648.390567,137.467249 C645.990898,137.467249 644.551096,137.947598 643.111295,137.947598 C641.671494,137.947598 640.711626,138.427948 640.231692,138.908297 C639.751758,139.388646 639.271825,139.868996 639.271825,140.829694 C638.791891,141.790393 638.791891,142.751092 638.791891,143.71179 Z M590.798511,221.528384 L590.798511,248.427948 L505.370294,248.427948 L505.370294,244.585153 C505.850228,244.585153 506.330161,244.585153 507.769963,244.104803 C509.209764,244.104803 510.169632,243.144105 510.649566,242.663755 C511.609433,242.183406 512.089367,241.222707 512.089367,239.781659 C512.569301,238.820961 512.569301,236.899563 512.569301,234.978166 L512.569301,143.71179 C512.569301,141.790393 512.089367,140.349345 512.089367,138.908297 C511.609433,137.467249 511.129499,136.50655 510.649566,136.026201 C510.169632,135.545852 509.209764,135.065502 507.769963,134.585153 C506.330161,134.585153 505.850228,134.104803 505.370294,134.104803 L505.370294,130.262009 L512.089367,130.262009 L587.918908,130.262009 L587.918908,155.720524 L581.679768,155.720524 C580.719901,151.39738 579.280099,148.034934 578.320232,145.633188 C577.360364,143.231441 575.920563,141.310044 574.000827,139.868996 C572.561026,138.427948 570.161357,137.947598 567.281754,137.467249 C564.402151,136.9869 560.562681,136.9869 556.243277,136.9869 L543.285064,136.9869 C540.885395,136.9869 539.445594,136.9869 538.485726,137.947598 C538.005792,138.908297 537.525859,140.829694 537.525859,143.231441 L537.525859,182.620087 L553.363674,182.620087 C554.803475,182.620087 556.243277,182.620087 558.163012,182.620087 C560.082747,182.620087 562.002482,182.620087 563.922218,182.139738 C565.841953,182.139738 567.761688,181.659389 569.681423,181.179039 C571.601158,180.69869 573.04096,180.218341 574.480761,179.257642 L574.480761,194.628821 C573.04096,193.668122 571.601158,193.187773 569.681423,192.707424 C567.761688,192.227074 565.841953,191.746725 563.922218,191.746725 C562.002482,191.746725 560.082747,191.266376 558.163012,191.266376 C556.243277,191.266376 554.803475,191.266376 553.363674,191.266376 L537.525859,191.266376 L537.525859,228.733624 C537.525859,231.615721 537.525859,233.537118 538.005792,235.458515 C538.005792,236.899563 538.96566,238.340611 540.405461,239.30131 C541.845263,240.262009 543.764998,240.742358 546.644601,241.222707 C549.04427,241.703057 552.88374,241.703057 557.683078,241.703057 C562.96235,241.703057 566.80182,241.703057 569.681423,241.222707 C572.561026,241.222707 574.960695,240.262009 576.400496,238.820961 C578.320232,237.379913 579.280099,235.458515 580.239967,232.576419 C581.199835,229.694323 582.159702,226.331878 583.11957,221.528384 L590.798511,221.528384 Z M460.256516,247.947598 C454.017377,248.908297 448.258171,248.908297 441.059164,248.908297 L396.425321,248.908297 L396.425321,244.585153 C396.905254,244.585153 397.385188,244.585153 398.82499,244.104803 C400.264791,244.104803 401.224659,243.144105 401.704592,242.663755 C402.66446,242.183406 403.144394,241.222707 403.144394,239.781659 C403.624328,238.340611 403.624328,236.899563 403.624328,234.978166 L403.624328,228.733624 C403.624328,228.253275 403.624328,228.253275 403.624328,228.253275 L403.624328,210.480349 L403.624328,167.248908 L403.624328,146.113537 L403.624328,143.71179 C403.624328,141.790393 403.144394,140.349345 403.144394,138.908297 C402.66446,137.467249 402.184526,136.50655 401.704592,136.026201 C401.224659,135.545852 400.264791,135.065502 398.82499,134.585153 C397.385188,134.585153 396.905254,134.104803 396.425321,134.104803 L396.425321,130.262009 L403.144394,130.262009 L484.73314,130.262009 L484.73314,156.681223 L478.494001,156.681223 C477.534133,152.358079 476.094332,148.995633 475.134464,146.593886 C474.174597,144.19214 472.734795,142.270742 470.81506,140.829694 C469.375259,139.388646 466.97559,138.908297 464.095987,138.427948 C461.216384,137.947598 457.376914,137.947598 453.057509,137.947598 L438.659495,137.947598 C434.820025,137.947598 432.420356,137.947598 430.980554,138.908297 C429.540753,139.868996 429.060819,141.790393 429.060819,144.672489 L429.060819,173.0131 L439.139429,173.0131 C448.738105,173.0131 456.89698,173.49345 463.616053,174.934498 C470.335126,176.375546 475.614398,178.296943 479.933802,181.179039 C484.253206,184.541485 487.132809,187.90393 489.052544,192.707424 C490.97228,197.510917 491.932147,202.79476 491.932147,209.519651 C491.932147,218.646288 490.492346,225.851528 487.612743,231.135371 C484.73314,236.419214 480.89367,240.262009 476.094332,243.144105 C471.774928,245.545852 466.015722,247.467249 460.256516,247.947598 Z M430.980554,239.30131 C431.940422,240.262009 433.380223,240.742358 434.820025,241.222707 C436.73976,241.703057 438.659495,241.703057 441.539098,242.183406 C444.418701,242.183406 447.298304,241.703057 450.177906,241.222707 C452.577576,240.262009 454.977245,238.820961 457.376914,236.899563 C459.776583,234.497817 461.216384,231.615721 462.656185,227.292576 C464.095987,222.969432 464.575921,217.68559 464.575921,210.480349 C464.575921,199.912664 462.656185,192.227074 458.816715,187.423581 C454.977245,182.620087 448.258171,180.218341 439.139429,180.218341 L429.060819,180.218341 L429.060819,230.174672 C429.060819,232.576419 429.540753,234.497817 429.540753,235.938865 C429.540753,237.379913 430.020687,238.340611 430.980554,239.30131 Z M288.920149,282.532751 L1159.04013,282.532751 L1159.04013,294.061135 L288.920149,294.061135 L288.920149,282.532751 Z M1089.44973,204.235808 C1087.05006,200.873362 1084.65039,197.510917 1082.25072,194.148472 C1083.69053,191.746725 1085.61026,189.344978 1088.00993,185.982533 C1090.4096,183.100437 1092.80927,179.257642 1095.68887,175.414847 C1098.56847,171.572052 1100.96814,167.729258 1103.84775,163.406114 C1106.24741,159.082969 1109.12702,154.759825 1111.52669,150.917031 C1114.40629,147.074236 1116.32602,143.231441 1118.24576,139.868996 C1120.16549,136.50655 1121.6053,133.624454 1122.56516,131.222707 L1150.40132,131.222707 C1147.04179,133.624454 1143.68225,136.50655 1139.36285,140.349345 C1135.04344,144.19214 1131.20397,148.515284 1126.88457,153.318777 C1122.56516,157.641921 1118.72569,162.445415 1114.88622,167.248908 C1111.04675,172.052402 1107.68722,175.895197 1104.80761,179.737991 L1102.88788,182.139738 C1105.28755,185.982533 1108.16715,190.305677 1110.56682,193.668122 C1112.96649,197.030568 1115.84609,200.873362 1118.72569,204.235808 C1121.6053,207.598253 1124.4849,210.960699 1127.84444,214.803493 C1130.72404,218.165939 1134.08357,222.008734 1137.92305,226.331878 C1140.32271,228.733624 1143.68225,232.576419 1147.52172,236.899563 C1151.84113,241.222707 1155.6806,245.545852 1160,249.868996 L1119.68556,249.388646 C1118.24576,246.50655 1116.80596,243.144105 1114.88622,240.262009 C1112.96649,236.899563 1111.04675,234.017467 1108.64708,230.655022 C1106.24741,227.772926 1104.32768,224.89083 1102.40794,222.008734 C1100.48821,219.126638 1098.08854,216.244541 1096.1688,213.362445 C1093.76914,210.480349 1091.8494,207.598253 1089.44973,204.235808 Z M1086.09019,245.065502 L1086.09019,248.427948 L1047.21556,248.427948 L1047.21556,244.585153 C1047.69549,244.585153 1048.17542,244.585153 1049.61523,244.104803 C1051.05503,244.104803 1052.01489,243.144105 1052.49483,242.663755 C1053.4547,242.183406 1053.93463,241.222707 1053.93463,239.781659 C1054.41456,238.820961 1054.41456,236.899563 1054.41456,234.978166 L1054.41456,143.71179 C1054.41456,141.790393 1053.93463,140.349345 1053.93463,138.908297 C1053.4547,137.467249 1052.97476,136.50655 1052.49483,136.026201 C1052.01489,135.545852 1051.05503,135.065502 1049.61523,134.585153 C1048.17542,134.585153 1047.69549,134.104803 1047.21556,134.104803 L1047.21556,130.262009 L1053.93463,130.262009 L1086.09019,130.262009 L1086.09019,134.585153 C1085.61026,134.585153 1085.13033,134.585153 1083.69053,135.065502 C1082.25072,135.545852 1081.29086,136.026201 1080.81092,136.50655 C1079.85106,136.9869 1079.37112,137.947598 1079.37112,139.388646 C1078.89119,140.349345 1078.89119,142.270742 1078.89119,144.19214 L1078.89119,235.458515 C1078.89119,237.379913 1079.37112,238.820961 1079.37112,240.262009 C1079.85106,241.703057 1080.33099,242.663755 1080.81092,243.144105 C1081.29086,243.624454 1082.25072,244.104803 1083.69053,244.585153 C1085.13033,244.585153 1085.61026,245.065502 1086.09019,245.065502 Z M827.885809,234.497817 C826.446007,241.222707 825.48614,246.026201 825.006206,249.388646 L803.409185,249.388646 C804.369053,247.467249 805.32892,245.545852 806.768722,243.144105 C808.208523,240.742358 809.648324,237.379913 811.56806,233.537118 C813.007861,229.694323 815.40753,224.41048 817.807199,218.646288 C820.206868,212.882096 823.566405,205.196507 826.925941,196.550218 L846.123293,149.475983 C847.083161,147.554585 847.563095,144.672489 847.563095,141.790393 C847.563095,140.829694 847.563095,140.349345 847.563095,139.388646 C847.083161,137.947598 846.603227,136.9869 846.123293,136.50655 C845.64336,136.026201 844.683492,135.545852 843.243691,135.065502 C841.803889,135.065502 841.323955,134.585153 840.844022,134.585153 L840.844022,130.742358 L874.919321,130.742358 C875.399255,132.183406 875.399255,134.104803 875.879189,136.50655 C876.359123,138.908297 876.839057,141.790393 878.278858,145.152838 L905.635085,222.969432 C908.034754,230.174672 910.434423,235.938865 912.354158,239.781659 C914.273893,243.624454 915.713695,246.9869 917.153496,249.388646 L886.917667,249.388646 C886.917667,246.9869 885.957799,243.624454 884.517998,238.820961 C883.55813,234.017467 881.638395,228.253275 879.238726,221.528384 L873.959454,206.157205 L836.044683,206.157205 C832.205213,218.165939 829.32561,227.772926 827.885809,234.497817 Z M855.242036,149.956332 L838.444353,197.991266 L871.079851,197.991266 L855.242036,149.956332 Z M962.747207,245.065502 L962.747207,248.908297 L923.872569,248.908297 L923.872569,245.065502 C924.352503,245.065502 924.832437,245.065502 926.272238,244.585153 C927.71204,244.585153 928.671907,243.624454 929.151841,243.144105 C930.111709,242.663755 930.591643,241.703057 930.591643,240.262009 C931.071576,238.820961 931.071576,237.379913 931.071576,235.458515 L931.071576,229.213974 L931.071576,228.733624 L931.071576,146.593886 L931.071576,143.71179 C931.071576,141.790393 930.591643,140.349345 930.591643,138.908297 C930.111709,137.467249 929.631775,136.50655 929.151841,136.026201 C928.671907,135.545852 927.71204,135.065502 926.272238,134.585153 C924.832437,134.585153 924.352503,134.104803 923.872569,134.104803 L923.872569,130.262009 L930.591643,130.262009 L962.747207,130.262009 L962.747207,134.104803 C962.267273,134.104803 961.78734,134.104803 960.347538,134.585153 C958.907737,135.065502 957.947869,135.545852 957.467935,136.026201 C956.508068,136.50655 956.028134,137.467249 956.028134,138.908297 C955.5482,139.868996 955.5482,141.790393 955.5482,143.71179 L955.5482,181.659389 L1001.62185,181.659389 L1001.62185,143.71179 C1001.62185,141.790393 1001.14191,140.349345 1001.14191,138.908297 C1000.66198,137.467249 1000.18204,136.50655 999.70211,136.026201 C999.222176,135.545852 998.262309,135.065502 996.822507,134.585153 C995.382706,134.585153 994.902772,134.104803 994.422838,134.104803 L994.422838,130.262009 L1000.18204,130.262009 L1032.33761,130.262009 L1032.33761,133.624454 C1031.85767,133.624454 1031.37774,133.624454 1029.93794,134.104803 C1028.49814,134.585153 1027.53827,135.065502 1027.05834,135.545852 C1026.09847,136.026201 1025.61854,136.9869 1025.61854,138.427948 C1025.1386,139.388646 1025.1386,141.310044 1025.1386,143.231441 L1025.1386,166.768559 L1025.1386,167.248908 L1025.1386,210.480349 L1025.1386,211.441048 L1025.1386,234.978166 C1025.1386,236.899563 1025.61854,238.340611 1025.61854,239.781659 C1026.09847,241.222707 1026.5784,242.183406 1027.05834,242.663755 C1027.53827,243.144105 1028.49814,243.624454 1029.93794,244.104803 C1031.37774,244.104803 1031.85767,244.585153 1032.33761,244.585153 L1032.33761,248.427948 L993.462971,248.427948 L993.462971,244.585153 C993.942904,244.585153 994.422838,244.585153 995.86264,244.104803 C997.302441,244.104803 998.262309,243.144105 998.742242,242.663755 C999.70211,242.183406 1000.18204,241.222707 1000.18204,239.781659 C1000.66198,238.820961 1000.66198,236.899563 1000.66198,234.978166 L1000.66198,189.825328 L954.588333,189.825328 L954.588333,235.458515 C954.588333,237.379913 955.068266,238.820961 955.068266,240.262009 C955.5482,241.703057 956.028134,242.663755 956.508068,243.144105 C956.988002,243.624454 957.947869,244.104803 959.387671,244.585153 C960.827472,244.585153 961.307406,245.065502 961.78734,245.065502 L962.747207,245.065502 Z M209.731072,142.751092 L70.0703351,223.449782 L2.39966901,184.541485 C2.87960281,180.218341 3.83947042,176.375546 5.27927182,172.052402 L69.5904013,209.039301 L202.532065,132.663755 C204.931734,136.026201 207.331403,139.388646 209.731072,142.751092 Z M69.5904013,237.860262 L215.970211,153.799127 C224.129086,169.170306 228.44849,186.943231 228.44849,205.676856 C228.44849,269.082969 177.095573,320 114.224245,320 C50.872983,320 0,268.60262 0,205.676856 C0,203.275109 0,200.393013 0.479933802,197.991266 L69.5904013,237.860262 Z M193.413322,123.056769 L69.1104675,194.628821 L9.11874224,160.043668 C11.0384775,156.200873 12.9582127,152.358079 14.8779479,148.995633 L69.5904013,180.218341 L183.334712,114.41048 C186.694249,117.292576 190.053786,119.694323 193.413322,123.056769 Z M171.816301,106.724891 L69.1104675,165.80786 L21.5970211,138.427948 C24.4766239,135.065502 26.8762929,131.703057 29.7558957,128.820961 L69.5904013,151.39738 L158.378155,100 C163.177493,101.921397 167.496897,104.323144 171.816301,106.724891 Z" id="Combined-Shape"></path>
        </g>
    </g>
</svg>