<?xml version="1.0" encoding="UTF-8"?>
<svg width="840px" height="406px" viewBox="0 0 840 406" version="1.1" xmlns="http://www.w3.org/2000/svg" xmlns:xlink="http://www.w3.org/1999/xlink">
    <!-- Generator: Sketch 53.2 (72643) - https://sketchapp.com -->
    <title>sberbank-vert</title>
    <desc>Created with Sketch.</desc>
    <g id="Page-1" stroke="none" stroke-width="1" fill="none" fill-rule="evenodd">
        <g id="Group-3" fill="#000000" fill-rule="nonzero">
            <path d="M40.2289016,391.315175 C36.3419741,386.996109 33.3188086,381.381323 32.0231655,374.03891 C29.8637612,367.560311 29,359.785992 29,351.579767 C29,342.941635 29.8637612,334.735409 32.0231655,327.824903 C34.1825698,320.914397 37.2057361,314.867704 41.5245447,310.116731 C45.8433533,305.365759 51.4578041,301.4786 57.936017,298.887159 C64.8461109,296.29572 72.6199669,295 82.1213453,295 C84.2807495,295 86.8720349,295.431907 89.4633202,295.431907 C92.4864857,295.863814 95.077771,295.863814 98.1009374,296.29572 C101.124104,296.727627 103.715388,297.159533 106.306674,298.023347 C108.897959,298.887159 111.057363,299.750973 113.216767,300.614786 L113.216767,321.778211 L106.306674,321.778211 C105.011031,315.299612 102.419746,310.116731 98.1009374,307.093385 C93.7821288,304.07004 88.5995581,302.342413 82.5532263,302.342413 C76.0750134,302.342413 70.8924428,304.07004 67.0055152,306.661479 C63.1185877,309.684825 60.5273023,313.140078 58.367898,317.459144 C56.2084937,321.778211 54.9128515,326.529184 54.4809705,332.143969 C54.0490894,337.758756 53.6172084,343.373541 53.6172084,348.55642 C53.6172084,355.466927 54.0490894,361.513618 54.9128515,367.560311 C55.7766127,373.175098 57.504136,378.357977 59.6635411,382.677043 C62.2548256,386.564202 65.2779919,390.019455 69.5968005,392.610895 C73.4837281,395.202334 79.0981798,396.498054 85.5763927,396.498054 C89.0314392,396.498054 92.0546055,396.498054 94.64589,396.066148 C97.2371753,396.066148 99.3965796,395.202334 101.555984,394.770428 C103.715388,393.906615 105.442912,393.474708 107.170436,392.610895 C108.897959,391.747082 110.625482,390.883269 112.353005,390.019455 L115.376172,396.498054 C113.648648,397.361868 111.489244,398.225681 109.32984,399.521401 C106.738555,400.385214 104.147269,401.680934 101.124104,402.544747 C98.1009374,403.840467 95.077771,404.70428 91.1908435,405.136186 C87.735797,405.568094 83.4169884,406 79.0981798,406 C70.0286816,406 62.6867066,404.70428 56.2084937,402.112841 C49.7302809,399.521401 44.5477102,396.066148 40.2289016,391.315175 Z M462.608384,402.544747 C456.993933,403.40856 451.379481,403.40856 444.901268,403.40856 L404.736348,403.40856 L404.736348,399.953307 C405.168229,399.953307 405.60011,399.953307 406.895753,399.521401 C408.191395,399.521401 409.055157,398.657587 409.487038,398.225681 C410.3508,397.793774 410.782681,396.929961 410.782681,395.634242 C411.214562,394.770428 411.214562,393.042802 411.214562,391.315175 L411.214562,369.719844 L411.214562,330.416343 L411.214562,308.821012 C411.214562,307.093385 410.782681,305.797666 410.782681,304.501946 C410.3508,303.206226 409.918919,302.342413 409.487038,301.910506 C409.055157,301.4786 408.191395,301.046693 406.895753,300.614786 C405.60011,300.614786 405.168229,300.182879 404.736348,300.182879 L404.736348,296.727627 L410.782681,296.727627 L484.202427,296.727627 L484.202427,320.482491 L478.587976,320.482491 C477.724214,316.595331 476.428572,313.571985 475.564809,311.412451 C474.701047,309.252919 473.405405,307.525292 471.677882,306.229572 C470.382239,304.933852 468.222835,304.501946 465.63155,304.07004 C463.040265,303.638132 459.585217,303.638132 455.69829,303.638132 L442.741864,303.638132 C439.286818,303.638132 437.127413,303.638132 435.83177,304.501946 C434.536128,305.365759 434.104247,307.093385 434.104247,309.684825 L434.104247,335.167315 L443.173745,335.167315 C451.811362,335.167315 459.153337,335.599222 465.199669,336.894942 C471.246001,338.190662 475.996691,339.918288 479.883618,342.509728 C483.770546,345.533074 486.361831,348.55642 488.089354,352.875487 C489.816878,357.194553 490.68064,361.945526 490.68064,367.992218 C490.68064,376.198443 489.384997,382.677043 486.793712,387.428015 C484.634308,392.178988 481.17926,395.634242 476.860452,398.225681 C472.973524,400.385214 467.790954,402.112841 462.608384,402.544747 Z M436.263651,394.770428 C437.127413,395.634242 438.423055,396.066148 439.718698,396.498054 C441.014341,396.929961 443.173745,396.929961 445.76503,397.361868 C448.356316,397.361868 450.9476,396.929961 453.538886,396.498054 C455.69829,395.634242 457.857694,394.338522 460.017098,392.610895 C462.176503,390.451362 463.472146,387.859923 464.767788,383.972762 C466.06343,380.085603 466.495311,375.334631 466.495311,368.856031 C466.495311,359.354086 464.767788,352.44358 461.312742,348.124514 C457.857694,343.805447 451.811362,341.645915 443.605626,341.645915 L434.536128,341.645915 L434.536128,386.564202 C434.536128,388.723735 434.968009,390.451362 434.968009,391.747082 C434.968009,393.042802 435.399889,393.906615 436.263651,394.770428 Z M349.023717,399.953307 L349.023717,402.976654 L314.041368,402.976654 L314.041368,399.521401 C314.473249,399.521401 314.90513,399.521401 316.200772,399.089494 C317.496414,399.089494 318.360176,398.225681 318.792057,397.793774 C319.655818,397.361868 320.087699,396.498054 320.087699,395.202334 C320.51958,394.338522 320.51958,392.610895 320.51958,390.883269 L320.51958,308.821012 C320.51958,307.093385 320.087699,305.797666 320.087699,304.501946 C319.655818,303.206226 319.223938,302.342413 318.792057,301.910506 C318.360176,301.4786 317.496414,301.046693 316.200772,300.614786 C314.90513,300.614786 314.473249,300.182879 314.041368,300.182879 L314.041368,296.727627 L320.087699,296.727627 L356.365692,296.727627 C361.548262,296.727627 366.298952,297.159533 371.049641,297.59144 C375.800331,298.023347 380.11914,299.319067 383.574186,301.4786 C387.029233,303.638132 390.052399,307.093385 392.211803,310.980545 C393.939326,314.867704 395.23497,320.482491 395.23497,327.392996 C395.23497,334.735409 393.939326,340.782101 391.779922,345.101167 C389.620518,349.85214 386.597352,352.875487 382.710425,355.466927 C378.823496,357.626459 374.504688,359.354086 369.322118,360.217899 C364.139547,361.081712 358.956977,361.513618 353.342526,361.513618 L342.545504,361.513618 L342.545504,391.315175 C342.545504,393.042802 342.977386,394.338522 342.977386,395.634242 C343.409267,396.929961 343.841147,397.793774 344.273028,398.225681 C344.704909,398.657587 345.568671,399.089494 346.864313,399.521401 C348.159955,399.521401 348.591836,399.953307 349.023717,399.953307 Z M342.977386,308.821012 L342.977386,354.603113 L353.774407,354.603113 C360.25262,354.603113 365.003309,352.011673 367.594595,347.2607 C370.185879,342.509728 371.481522,335.599222 371.481522,326.529184 C371.481522,322.210117 371.049641,318.322957 370.185879,315.299612 C368.890237,312.276265 367.594595,309.684825 365.867071,307.957199 C363.707666,306.229572 361.980143,304.933852 359.388858,304.07004 C356.797572,303.638132 354.206288,303.206226 351.615003,303.206226 C349.455598,303.206226 348.159955,303.638132 346.864313,303.638132 C345.568671,303.638132 344.704909,304.07004 344.273028,304.501946 C343.841147,304.933852 343.409267,305.365759 343.409267,306.229572 C342.977386,307.093385 342.977386,307.957199 342.977386,308.821012 Z M299.7893,378.789883 L299.7893,402.976654 L222.914506,402.976654 L222.914506,399.521401 C223.346387,399.521401 223.778267,399.521401 225.073911,399.089494 C226.369553,399.089494 227.233315,398.225681 227.665196,397.793774 C228.528957,397.361868 228.960838,396.498054 228.960838,395.202334 C229.392719,394.338522 229.392719,392.610895 229.392719,390.883269 L229.392719,308.821012 C229.392719,307.093385 228.960838,305.797666 228.960838,304.501946 C228.528957,303.206226 228.097076,302.342413 227.665196,301.910506 C227.233315,301.4786 226.369553,301.046693 225.073911,300.614786 C223.778267,300.614786 223.346387,300.182879 222.914506,300.182879 L222.914506,296.727627 L228.960838,296.727627 L297.198014,296.727627 L297.198014,319.618677 L291.583563,319.618677 C290.719801,315.731518 289.424158,312.708171 288.560397,310.548639 C287.696635,308.389105 286.400993,306.661479 284.673469,305.365759 C283.377826,304.07004 281.218422,303.638132 278.627137,303.206226 C276.035852,302.77432 272.580805,302.77432 268.693877,302.77432 L257.033094,302.77432 C254.87369,302.77432 253.578047,302.77432 252.714285,303.638132 C252.282404,304.501946 251.850524,306.229572 251.850524,308.389105 L251.850524,343.805447 L266.102592,343.805447 C267.398234,343.805447 268.693877,343.805447 270.421401,343.805447 C272.148924,343.805447 273.876447,343.805447 275.603971,343.373541 C277.331495,343.373541 279.059018,342.941635 280.786541,342.509728 C282.514064,342.077821 283.809708,341.645915 285.10535,340.782101 L285.10535,354.603113 C283.809708,353.7393 282.514064,353.307393 280.786541,352.875487 C279.059018,352.44358 277.331495,352.011673 275.603971,352.011673 C273.876447,352.011673 272.148924,351.579767 270.421401,351.579767 C268.693877,351.579767 267.398234,351.579767 266.102592,351.579767 L251.850524,351.579767 L251.850524,385.268482 C251.850524,387.859923 251.850524,389.587549 252.282404,391.315175 C252.282404,392.610895 253.146166,393.906615 254.441809,394.770428 C255.737452,395.634242 257.464975,396.066148 260.05626,396.498054 C262.215665,396.929961 265.670711,396.929961 269.98952,396.929961 C274.740209,396.929961 278.195256,396.929961 280.786541,396.498054 C283.377826,396.498054 285.537231,395.634242 286.832873,394.338522 C288.560397,393.042802 289.424158,391.315175 290.28792,388.723735 C291.151682,386.132296 292.015444,383.10895 292.879206,378.789883 L299.7893,378.789883 Z M182.317705,402.544747 C176.703254,403.40856 171.520683,403.40856 165.04247,403.40856 L124.877551,403.40856 L124.877551,399.521401 C125.309431,399.521401 125.741312,399.521401 127.036955,399.089494 C128.332597,399.089494 129.19636,398.225681 129.62824,397.793774 C130.492002,397.361868 130.923883,396.498054 130.923883,395.202334 C131.355764,393.906615 131.355764,392.610895 131.355764,390.883269 L131.355764,385.268482 C131.355764,384.836576 131.355764,384.836576 131.355764,384.836576 L131.355764,368.856031 L131.355764,329.984436 L131.355764,310.980545 L131.355764,308.821012 C131.355764,307.093385 130.923883,305.797666 130.923883,304.501946 C130.492002,303.206226 130.060121,302.342413 129.62824,301.910506 C129.19636,301.4786 128.332597,301.046693 127.036955,300.614786 C125.741312,300.614786 125.309431,300.182879 124.877551,300.182879 L124.877551,296.727627 L130.923883,296.727627 L204.343629,296.727627 L204.343629,320.482491 L198.729178,320.482491 C197.865416,316.595331 196.569774,313.571985 195.706012,311.412451 C194.84225,309.252919 193.546607,307.525292 191.819084,306.229572 C190.523442,304.933852 188.364038,304.501946 185.772752,304.07004 C183.181467,303.638132 179.72642,303.638132 175.839492,303.638132 L162.883066,303.638132 C159.42802,303.638132 157.268615,303.638132 155.972972,304.501946 C154.67733,305.365759 154.245449,307.093385 154.245449,309.684825 L154.245449,335.167315 L163.314947,335.167315 C171.952564,335.167315 179.294539,335.599222 185.340871,336.894942 C191.387203,338.190662 196.137893,339.918288 200.02482,342.509728 C203.911748,345.533074 206.503033,348.55642 208.230556,352.875487 C209.958081,357.194553 210.821842,361.945526 210.821842,367.992218 C210.821842,376.198443 209.526199,382.677043 206.934914,387.428015 C204.343629,392.178988 200.888582,395.634242 196.569774,398.225681 C192.682846,400.385214 187.500275,402.112841 182.317705,402.544747 Z M155.972972,394.770428 C156.836734,395.634242 158.132377,396.066148 159.42802,396.498054 C161.155543,396.929961 162.883066,396.929961 165.474352,397.361868 C168.065637,397.361868 170.656922,396.929961 173.248207,396.498054 C175.407612,395.634242 177.567016,394.338522 179.72642,392.610895 C181.885825,390.451362 183.181467,387.859923 184.477109,383.972762 C185.772752,380.085603 186.204633,375.334631 186.204633,368.856031 C186.204633,359.354086 184.477109,352.44358 181.022063,348.124514 C177.567016,343.805447 171.520683,341.645915 163.314947,341.645915 L154.245449,341.645915 L154.245449,386.564202 C154.245449,388.723735 154.67733,390.451362 154.67733,391.747082 C154.67733,393.042802 155.109211,393.906615 155.972972,394.770428 Z M748.513513,363.241245 C746.354107,360.217899 744.194702,357.194553 742.035297,354.171207 C743.330947,352.011673 745.058466,349.85214 747.217871,346.828794 C749.377276,344.237355 751.536682,340.782101 754.127964,337.326848 C756.719247,333.871595 758.878652,330.416343 761.469944,326.529184 C763.62934,322.642023 766.220632,318.754864 768.380037,315.299612 C770.971319,311.844358 772.698838,308.389105 774.426366,305.365759 C776.153885,302.342413 777.449535,299.750973 778.31329,297.59144 L803.362379,297.59144 C800.339219,299.750973 797.31605,302.342413 793.429126,305.797666 C789.542193,309.252919 786.087147,313.140078 782.200223,317.459144 C778.31329,321.346303 774.858243,325.66537 771.403197,329.984436 C767.94815,334.303502 764.92499,337.758756 762.333699,341.214008 L760.60618,343.373541 C762.765585,346.828794 765.356868,350.715954 767.516273,353.7393 C769.675678,356.762646 772.266961,360.217899 774.858243,363.241245 C777.449535,366.264591 780.040818,369.287938 783.063987,372.74319 C785.655269,375.766537 788.678429,379.22179 792.133485,383.10895 C794.292881,385.268482 797.31605,388.723735 800.771097,392.610895 C804.65803,396.498054 808.113076,400.385214 812,404.272374 L775.722007,403.840467 C774.426366,401.249027 773.130725,398.225681 771.403197,395.634242 C769.675678,392.610895 767.94815,390.019455 765.788745,386.996109 C763.62934,384.40467 761.901821,381.81323 760.174293,379.22179 C758.446775,376.630351 756.287369,374.03891 754.559842,371.447471 C752.400445,368.856031 750.672918,366.264591 748.513513,363.241245 Z M745.490343,399.953307 L745.490343,402.976654 L710.508001,402.976654 L710.508001,399.521401 C710.939878,399.521401 711.371756,399.521401 712.667406,399.089494 C713.963047,399.089494 714.826802,398.225681 715.258689,397.793774 C716.122453,397.361868 716.55433,396.498054 716.55433,395.202334 C716.986207,394.338522 716.986207,392.610895 716.986207,390.883269 L716.986207,308.821012 C716.986207,307.093385 716.55433,305.797666 716.55433,304.501946 C716.122453,303.206226 715.690566,302.342413 715.258689,301.910506 C714.826802,301.4786 713.963047,301.046693 712.667406,300.614786 C711.371756,300.614786 710.939878,300.182879 710.508001,300.182879 L710.508001,296.727627 L716.55433,296.727627 L745.490343,296.727627 L745.490343,300.614786 C745.058466,300.614786 744.626589,300.614786 743.330947,301.046693 C742.035297,301.4786 741.171542,301.910506 740.739656,302.342413 C739.875901,302.77432 739.444014,303.638132 739.444014,304.933852 C739.012137,305.797666 739.012137,307.525292 739.012137,309.252919 L739.012137,391.315175 C739.012137,393.042802 739.444014,394.338522 739.444014,395.634242 C739.875901,396.929961 740.307778,397.793774 740.739656,398.225681 C741.171542,398.657587 742.035297,399.089494 743.330947,399.521401 C744.626589,399.521401 745.058466,399.953307 745.490343,399.953307 Z M513.138445,390.451362 C511.842801,396.498054 510.97904,400.817121 510.547159,403.840467 L491.112521,403.840467 C491.976283,402.112841 492.840044,400.385214 494.135687,398.225681 C495.431329,396.066148 496.726971,393.042802 498.454496,389.587549 C499.750138,386.132296 501.909542,381.381323 504.068946,376.198443 C506.228351,371.015564 509.251517,364.105059 512.274682,356.330739 L529.549917,314.003892 C530.413679,312.276265 530.84556,309.684825 530.84556,307.093385 C530.84556,306.229572 530.84556,305.797666 530.84556,304.933852 C530.413679,303.638132 529.981798,302.77432 529.549917,302.342413 C529.118037,301.910506 528.254275,301.4786 526.958632,301.046693 C525.662989,301.046693 525.231108,300.614786 524.799228,300.614786 L524.799228,297.159533 L555.462768,297.159533 C555.894649,298.455253 555.894649,300.182879 556.32653,302.342413 C556.758411,304.501946 557.190292,307.093385 558.485935,310.116731 L583.103144,380.085603 C585.262548,386.564202 587.421953,391.747082 589.149476,395.202334 C590.876999,398.657587 592.172642,401.680934 593.468284,403.840467 L566.259791,403.840467 C566.259791,401.680934 565.396029,398.657587 564.100386,394.338522 C563.236624,390.019455 561.509101,384.836576 559.349697,378.789883 L554.599007,364.968872 L520.480419,364.968872 C517.025372,375.766537 514.434087,384.40467 513.138445,390.451362 Z M537.755654,314.435798 L522.639824,357.626459 L552.007722,357.626459 L537.755654,314.435798 Z M634.496966,399.953307 L634.496966,403.40856 L599.514616,403.40856 L599.514616,399.953307 C599.946497,399.953307 600.378378,399.953307 601.674021,399.521401 C602.969664,399.521401 603.833425,398.657587 604.265306,398.225681 C605.129068,397.793774 605.560949,396.929961 605.560949,395.634242 C605.992829,394.338522 605.992829,393.042802 605.992829,391.315175 L605.992829,385.700389 L605.992829,385.268482 L605.992829,311.412451 L605.992829,308.821012 C605.992829,307.093385 605.560949,305.797666 605.560949,304.501946 C605.129068,303.206226 604.697187,302.342413 604.265306,301.910506 C603.833425,301.4786 602.969664,301.046693 601.674021,300.614786 C600.378378,300.614786 599.946497,300.182879 599.514616,300.182879 L599.514616,296.727627 L605.560949,296.727627 L634.496966,296.727627 L634.496966,300.182879 C634.065085,300.182879 633.633205,300.182879 632.337562,300.614786 C631.041919,301.046693 630.178157,301.4786 629.746276,301.910506 C628.882515,302.342413 628.450634,303.206226 628.450634,304.501946 C628.018753,305.365759 628.018753,307.093385 628.018753,308.821012 L628.018753,342.941635 L669.47932,342.941635 L669.47932,308.821012 C669.47932,307.093385 669.047434,305.797666 669.047434,304.501946 C668.615556,303.206226 668.18367,302.342413 667.751792,301.910506 C667.319911,301.4786 666.45615,301.046693 665.160507,300.614786 C663.864865,300.614786 663.432984,300.182879 663.001103,300.182879 L663.001103,296.727627 L668.18367,296.727627 L697.119692,296.727627 L697.119692,299.750973 C696.687806,299.750973 696.255928,299.750973 694.960287,300.182879 C693.664646,300.614786 692.800882,301.046693 692.369004,301.4786 C691.505241,301.910506 691.073363,302.77432 691.073363,304.07004 C690.641477,304.933852 690.641477,306.661479 690.641477,308.389105 L690.641477,329.552529 L690.641477,329.984436 L690.641477,368.856031 L690.641477,369.719844 L690.641477,390.883269 C690.641477,392.610895 691.073363,393.906615 691.073363,395.202334 C691.505241,396.498054 691.937118,397.361868 692.369004,397.793774 C692.800882,398.225681 693.664646,398.657587 694.960287,399.089494 C696.255928,399.089494 696.687806,399.521401 697.119692,399.521401 L697.119692,402.976654 L662.137342,402.976654 L662.137342,399.521401 C662.569222,399.521401 663.001103,399.521401 664.296746,399.089494 C665.592388,399.089494 666.45615,398.225681 666.88803,397.793774 C667.751792,397.361868 668.18367,396.498054 668.18367,395.202334 C668.615556,394.338522 668.615556,392.610895 668.615556,390.883269 L668.615556,350.284047 L627.154992,350.284047 L627.154992,391.315175 C627.154992,393.042802 627.586872,394.338522 627.586872,395.634242 C628.018753,396.929961 628.450634,397.793774 628.882515,398.225681 C629.314396,398.657587 630.178157,399.089494 631.473801,399.521401 C632.769443,399.521401 633.201324,399.953307 633.633205,399.953307 L634.496966,399.953307 Z M515.731072,42.751092 L376.070335,123.449782 L308.399669,84.541485 C308.879603,80.218341 309.83947,76.375546 311.279272,72.052402 L375.590401,109.039301 L508.532065,32.663755 C510.931734,36.026201 513.331403,39.388646 515.731072,42.751092 Z M375.590401,137.860262 L521.970211,53.799127 C530.129086,69.170306 534.44849,86.943231 534.44849,105.676856 C534.44849,169.082969 483.095573,220 420.224245,220 C356.872983,220 306,168.60262 306,105.676856 C306,103.275109 306,100.393013 306.479934,97.991266 L375.590401,137.860262 Z M499.413322,23.056769 L375.110468,94.628821 L315.118742,60.043668 C317.038477,56.200873 318.958213,52.358079 320.877948,48.995633 L375.590401,80.218341 L489.334712,14.41048 C492.694249,17.292576 496.053786,19.694323 499.413322,23.056769 Z M477.816301,6.724891 L375.110468,65.80786 L327.597021,38.427948 C330.476624,35.065502 332.876293,31.703057 335.755896,28.820961 L375.590401,51.39738 L464.378155,-5.68434189e-14 C469.177493,1.921397 473.496897,4.323144 477.816301,6.724891 Z" id="Combined-Shape"></path>
        </g>
    </g>
</svg>